<svg width="7" height="5" viewBox="0 0 7 5" fill="none" xmlns="http://www.w3.org/2000/svg">
<path d="M3.50148 2.73046L0.882683 0.111779C0.810748 0.0396738 0.714569 7.12132e-06 0.612016 7.12581e-06C0.509406 7.13029e-06 0.413284 0.0396738 0.341236 0.111779L0.111886 0.341243C0.0397234 0.413234 -1.57488e-07 0.50947 -1.53005e-07 0.612023C-1.48522e-07 0.714576 0.0397234 0.810698 0.111886 0.882747L3.22979 4.00071C3.30207 4.07304 3.39864 4.11265 3.50131 4.11236C3.60443 4.11265 3.70089 4.0731 3.77323 4.00071L6.88811 0.885649C6.96028 0.8136 7 0.717478 7 0.614869C7 0.512316 6.96028 0.416194 6.88811 0.344088L6.65876 0.114682C6.50949 -0.0345948 6.26648 -0.0345948 6.11726 0.114682L3.50148 2.73046Z" fill="black"/>
</svg>
