<svg width="1920" height="118" viewBox="0 0 1920 118" fill="none" xmlns="http://www.w3.org/2000/svg">
<path d="M-4.46162 4.68799L-3.77626 3.95979L-3.78662 3.95004L-3.79726 3.94058L-4.46162 4.68799ZM-21.1656 2.24L-21.4597 1.28422L-21.4708 1.28764L-21.4819 1.29131L-21.1656 2.24ZM-25.7736 4.832L-25.1151 5.5846L-25.1093 5.57941L-25.7736 4.832ZM-28.6536 8.71999L-29.5481 8.27278L-29.5563 8.28933L-29.564 8.30619L-28.6536 8.71999ZM-29.2296 29.168L-30.2214 29.296L-30.2209 29.3002L-29.2296 29.168ZM-26.7816 41.408L-25.8092 41.1746L-25.8124 41.1613L-25.816 41.148L-26.7816 41.408ZM-23.4696 51.632L-22.5441 51.2534L-23.4696 51.632ZM-19.5816 60.992L-20.5041 61.3782L-20.5008 61.3859L-19.5816 60.992ZM-15.9816 70.352L-15.0392 70.0176L-15.0445 70.0025L-15.0504 69.9876L-15.9816 70.352ZM-12.0936 85.328L-13.0771 85.5092L-13.0748 85.5216L-13.0722 85.534L-12.0936 85.328ZM-12.0936 109.376L-12.841 108.712L-12.8628 108.736L-12.883 108.762L-12.0936 109.376ZM-22.8936 109.376L-23.683 109.99L-23.6628 110.016L-23.641 110.04L-22.8936 109.376ZM-24.4776 81.584H-23.4776V80.584H-24.4776V81.584ZM-31.9656 81.584V80.584H-32.9656V81.584H-31.9656ZM-28.0776 113.984L-28.763 114.712L-28.7526 114.722L-28.742 114.731L-28.0776 113.984ZM-11.3736 116.576L-11.0795 117.532L-11.0335 117.518L-10.989 117.499L-11.3736 116.576ZM-6.76562 113.984L-6.15168 114.773L-6.10254 114.735L-6.05851 114.691L-6.76562 113.984ZM-3.88562 109.952L-4.79599 109.538L-3.88562 109.952ZM-3.30962 89.648L-4.30141 89.776L-4.30085 89.7802L-3.30962 89.648ZM-5.75762 77.408L-6.73201 77.6329L-6.72794 77.6505L-6.72324 77.668L-5.75762 77.408ZM-9.06962 67.04L-8.14407 66.6614L-8.14721 66.6537L-8.15047 66.6461L-9.06962 67.04ZM-11.3736 60.992L-10.4249 60.6758L-10.445 60.6155L-10.4726 60.5582L-11.3736 60.992ZM-20.4456 33.344L-19.4622 33.1628L-19.4645 33.1504L-19.4671 33.138L-20.4456 33.344ZM-20.4456 9.44L-19.7385 10.1471L-19.6945 10.1031L-19.6563 10.0539L-20.4456 9.44ZM-9.64562 9.44L-8.89302 8.78147L-8.89821 8.77563L-9.64562 9.44ZM-7.91762 37.088H-8.91762V38.088H-7.91762V37.088ZM-0.573624 37.088V38.088H0.426376V37.088H-0.573624ZM0.426376 14.192C0.426376 9.89871 -1.11719 6.46245 -3.77626 3.95979L-5.14698 5.41619C-2.91005 7.52155 -1.57362 10.4213 -1.57362 14.192H0.426376ZM-3.79726 3.94058C-6.60809 1.44206 -10.0292 0.231993 -14.8296 0.231993V2.23199C-10.414 2.23199 -7.49915 3.32593 -5.12598 5.4354L-3.79726 3.94058ZM-14.8296 0.231993C-17.1096 0.231993 -19.514 0.685539 -21.4597 1.28422L-20.8715 3.19578C-19.0732 2.64245 -16.8696 2.23199 -14.8296 2.23199V0.231993ZM-21.4819 1.29131C-23.3181 1.90339 -25.0259 2.82944 -26.438 4.08459L-25.1093 5.57941C-23.9293 4.53055 -22.4692 3.72861 -20.8494 3.18868L-21.4819 1.29131ZM-26.4321 4.07942C-27.7079 5.19573 -28.7878 6.75227 -29.5481 8.27278L-27.7592 9.16721C-27.0795 7.80772 -26.1433 6.48425 -25.1151 5.58458L-26.4321 4.07942ZM-29.564 8.30619C-30.3629 10.0639 -30.6616 12.0907 -30.6616 14.192H-28.6616C-28.6616 12.2613 -28.3843 10.5441 -27.7433 9.13379L-29.564 8.30619ZM-30.6616 14.192C-30.6616 19.6146 -30.8081 24.7491 -30.2214 29.296L-28.2378 29.04C-28.8032 24.6589 -28.6616 19.7134 -28.6616 14.192H-30.6616ZM-30.2209 29.3002C-29.6389 33.665 -28.7661 37.8837 -27.7472 41.668L-25.816 41.148C-26.8132 37.4443 -27.6684 33.311 -28.2384 29.0358L-30.2209 29.3002ZM-27.754 41.6414C-26.8771 45.2953 -25.7087 48.7999 -24.3952 52.0106L-22.5441 51.2534C-23.8226 48.1281 -24.9582 44.7206 -25.8092 41.1746L-27.754 41.6414ZM-24.3952 52.0106C-23.7458 53.598 -22.7727 55.9407 -21.9627 57.8846C-21.5575 58.857 -21.1929 59.7303 -20.9296 60.3605C-20.7979 60.6757 -20.6915 60.93 -20.6181 61.1056C-20.5814 61.1934 -20.5529 61.2615 -20.5335 61.3077C-20.5239 61.3308 -20.5165 61.3484 -20.5116 61.3602C-20.5091 61.3661 -20.5072 61.3706 -20.506 61.3736C-20.5053 61.3751 -20.5049 61.3762 -20.5045 61.377C-20.5044 61.3774 -20.5043 61.3777 -20.5042 61.3778C-20.5041 61.3779 -20.5041 61.378 -20.5041 61.3781C-20.5041 61.3781 -20.5041 61.3781 -19.5816 60.992C-18.6592 60.6059 -18.6592 60.6058 -18.6592 60.6058C-18.6592 60.6057 -18.6593 60.6057 -18.6593 60.6056C-18.6594 60.6054 -18.6595 60.6051 -18.6596 60.6047C-18.66 60.604 -18.6604 60.6029 -18.6611 60.6014C-18.6623 60.5984 -18.6642 60.594 -18.6666 60.5881C-18.6716 60.5763 -18.6789 60.5587 -18.6886 60.5357C-18.7078 60.4896 -18.7363 60.4216 -18.773 60.3339C-18.8463 60.1585 -18.9526 59.9043 -19.0842 59.5894C-19.3473 58.9597 -19.7117 58.087 -20.1165 57.1154C-20.9266 55.1713 -21.8974 52.834 -22.5441 51.2534L-24.3952 52.0106ZM-20.5008 61.3859C-19.2085 64.4012 -18.2372 67.332 -16.9129 70.7164L-15.0504 69.9876C-16.3181 66.748 -17.3627 63.6308 -18.6625 60.5981L-20.5008 61.3859ZM-16.924 70.6864C-15.3612 75.0907 -14.0776 80.078 -13.0771 85.5092L-11.1102 85.1468C-12.1257 79.634 -13.434 74.5413 -15.0392 70.0176L-16.924 70.6864ZM-13.0722 85.534C-11.9407 90.9087 -11.5096 97.3105 -11.5096 104.624H-9.50962C-9.50962 97.2495 -9.94259 90.6913 -11.1151 85.122L-13.0722 85.534ZM-11.5096 104.624C-11.5096 106.336 -11.9003 107.653 -12.841 108.712L-11.3462 110.04C-9.98296 108.507 -9.50962 106.656 -9.50962 104.624H-11.5096ZM-12.883 108.762C-13.2222 109.198 -13.8116 109.578 -14.6364 109.848C-15.4517 110.114 -16.4235 110.248 -17.4216 110.248V112.248C-16.2598 112.248 -15.0715 112.094 -14.0149 111.748C-12.9676 111.406 -11.973 110.85 -11.3043 109.99L-12.883 108.762ZM-17.4216 110.248C-19.4792 110.248 -21.2787 109.688 -22.1462 108.712L-23.641 110.04C-22.2045 111.656 -19.6841 112.248 -17.4216 112.248V110.248ZM-22.1043 108.762C-22.974 107.644 -23.4776 106.276 -23.4776 104.624H-25.4776C-25.4776 106.716 -24.8292 108.516 -23.683 109.99L-22.1043 108.762ZM-23.4776 104.624V81.584H-25.4776V104.624H-23.4776ZM-24.4776 80.584H-31.9656V82.584H-24.4776V80.584ZM-32.9656 81.584V104.624H-30.9656V81.584H-32.9656ZM-32.9656 104.624C-32.9656 108.929 -31.4134 112.218 -28.763 114.712L-27.3923 113.256C-29.6378 111.142 -30.9656 108.383 -30.9656 104.624H-32.9656ZM-28.742 114.731C-25.9312 117.23 -22.51 118.44 -17.7096 118.44V116.44C-22.1252 116.44 -25.0401 115.346 -27.4133 113.237L-28.742 114.731ZM-17.7096 118.44C-15.3264 118.44 -13.0646 118.143 -11.0795 117.532L-11.6677 115.62C-13.4267 116.161 -15.4848 116.44 -17.7096 116.44V118.44ZM-10.989 117.499C-9.20401 116.755 -7.53644 115.85 -6.15168 114.773L-7.37956 113.195C-8.5868 114.134 -10.0872 114.957 -11.7582 115.653L-10.989 117.499ZM-6.05851 114.691C-4.84666 113.479 -3.75763 112.087 -2.97526 110.366L-4.79599 109.538C-5.45361 110.985 -6.38058 112.185 -7.47273 113.277L-6.05851 114.691ZM-2.97526 110.366C-2.17962 108.615 -1.87762 106.736 -1.87762 104.624H-3.87762C-3.87762 106.544 -4.15163 108.121 -4.79599 109.538L-2.97526 110.366ZM-1.87762 104.624C-1.87762 99.0602 -1.73097 93.9215 -2.31839 89.5158L-4.30085 89.7802C-3.73627 94.0145 -3.87762 98.9558 -3.87762 104.624H-1.87762ZM-2.31784 89.52C-2.90044 85.0049 -3.77419 80.9285 -4.792 77.148L-6.72324 77.668C-5.72506 81.3755 -4.87081 85.3631 -4.3014 89.776L-2.31784 89.52ZM-4.78323 77.1831C-5.66074 73.3806 -6.83017 69.8731 -8.14407 66.6614L-9.99517 67.4186C-8.71707 70.5429 -7.5825 73.9474 -6.73201 77.6329L-4.78323 77.1831ZM-8.15047 66.6461C-9.00431 64.6538 -9.71429 62.8077 -10.4249 60.6758L-12.3223 61.3082C-11.593 63.4963 -10.8629 65.3942 -9.98877 67.4339L-8.15047 66.6461ZM-10.4726 60.5582C-12.3245 56.712 -14.0391 52.4273 -15.6152 47.9856L-17.5 48.6544C-15.9081 53.1407 -14.1668 57.496 -12.2746 61.4258L-10.4726 60.5582ZM-15.6152 47.9856C-17.178 43.5812 -18.4617 38.594 -19.4622 33.1628L-21.4291 33.5252C-20.4136 39.038 -19.1052 44.1307 -17.5 48.6544L-15.6152 47.9856ZM-19.4671 33.138C-20.5987 27.7628 -21.0296 21.3607 -21.0296 14.192H-23.0296C-23.0296 21.4233 -22.5966 27.9811 -21.4242 33.55L-19.4671 33.138ZM-21.0296 14.192C-21.0296 12.3067 -20.6255 11.0341 -19.7385 10.1471L-21.1527 8.73289C-22.5697 10.1499 -23.0296 12.0453 -23.0296 14.192H-21.0296ZM-19.6563 10.0539C-19.3037 9.60057 -18.6951 9.18658 -17.8704 8.88527C-17.0551 8.58735 -16.0925 8.424 -15.1176 8.424V6.424C-16.3028 6.424 -17.5002 6.62065 -18.5568 7.00673C-19.6042 7.38942 -20.5796 7.98342 -21.235 8.82606L-19.6563 10.0539ZM-15.1176 8.424C-13.1197 8.424 -11.2863 9.09945 -10.393 10.1044L-8.89821 8.77563C-10.309 7.18855 -12.7955 6.424 -15.1176 6.424V8.424ZM-10.3982 10.0985C-9.54089 11.0783 -8.91762 12.4313 -8.91762 14.192H-6.91762C-6.91762 11.9207 -7.73435 10.1057 -8.89305 8.78149L-10.3982 10.0985ZM-8.91762 14.192V37.088H-6.91762V14.192H-8.91762ZM-7.91762 38.088H-0.573624V36.088H-7.91762V38.088ZM0.426376 37.088V14.192H-1.57362V37.088H0.426376ZM76.922 61.568V62.568H77.922V61.568H76.922ZM64.25 61.568H63.25V62.568H64.25V61.568ZM64.25 0.655991H65.25V-0.344009H64.25V0.655991ZM57.05 0.655991V-0.344009H56.05V0.655991H57.05ZM57.05 116H56.05V117H57.05V116ZM64.25 116V117H65.25V116H64.25ZM64.25 68.912V67.912H63.25V68.912H64.25ZM76.922 68.912H77.922V67.912H76.922V68.912ZM76.922 116H75.922V117H76.922V116ZM84.122 116V117H85.122V116H84.122ZM84.122 0.655991H85.122V-0.344009H84.122V0.655991ZM76.922 0.655991V-0.344009H75.922V0.655991H76.922ZM76.922 60.568H64.25V62.568H76.922V60.568ZM65.25 61.568V0.655991H63.25V61.568H65.25ZM64.25 -0.344009H57.05V1.65599H64.25V-0.344009ZM56.05 0.655991V116H58.05V0.655991H56.05ZM57.05 117H64.25V115H57.05V117ZM65.25 116V68.912H63.25V116H65.25ZM64.25 69.912H76.922V67.912H64.25V69.912ZM75.922 68.912V116H77.922V68.912H75.922ZM76.922 117H84.122V115H76.922V117ZM85.122 116V0.655991H83.122V116H85.122ZM84.122 -0.344009H76.922V1.65599H84.122V-0.344009ZM75.922 0.655991V61.568H77.922V0.655991H75.922ZM142.282 109.088L143.211 108.717L143.202 108.695L143.193 108.674L142.282 109.088ZM144.874 112.976L145.539 112.229L144.874 112.976ZM149.194 115.568L148.878 116.517L148.889 116.52L148.9 116.524L149.194 115.568ZM164.602 112.976L163.941 112.226L163.938 112.229L164.602 112.976ZM164.602 3.68L165.288 2.9518L165.277 2.94204L165.267 2.93259L164.602 3.68ZM149.194 1.23199L149.51 2.18068L149.532 2.17349L149.553 2.16534L149.194 1.23199ZM144.874 3.68L144.26 2.89064L144.234 2.91079L144.21 2.93259L144.874 3.68ZM142.282 7.71199L143.177 8.15921L143.202 8.10778L143.222 8.05374L142.282 7.71199ZM159.85 108.368L159.103 107.704V107.704L159.85 108.368ZM150.634 108.368L151.424 107.754L151.403 107.728L151.382 107.704L150.634 108.368ZM150.634 8.432L151.341 9.1391L151.385 9.09508L151.424 9.04594L150.634 8.432ZM159.85 8.432L159.103 9.09636L159.122 9.11832L159.143 9.1391L159.85 8.432ZM140.706 103.76C140.706 105.639 140.537 107.666 141.372 109.502L143.193 108.674C142.587 107.342 142.706 105.913 142.706 103.76H140.706ZM141.354 109.459C141.963 110.983 142.757 112.432 144.21 113.723L145.539 112.229C144.399 111.216 143.753 110.073 143.211 108.717L141.354 109.459ZM144.21 113.723C145.577 114.939 146.988 115.887 148.878 116.517L149.51 114.619C147.944 114.097 146.763 113.317 145.539 112.229L144.21 113.723ZM148.9 116.524C150.874 117.131 152.845 117.432 155.242 117.432V115.432C153.031 115.432 151.259 115.157 149.488 114.612L148.9 116.524ZM155.242 117.432C157.63 117.432 159.457 117.134 161.05 116.496C162.642 115.859 163.93 114.911 165.267 113.723L163.938 112.229C162.682 113.345 161.594 114.125 160.307 114.64C159.02 115.154 157.463 115.432 155.242 115.432V117.432ZM165.264 113.726C167.898 111.401 169.778 108.115 169.778 103.76H167.778C167.778 107.469 166.202 110.231 163.941 112.226L165.264 113.726ZM169.778 103.76V13.04H167.778V103.76H169.778ZM169.778 13.04C169.778 8.68081 167.896 5.40634 165.288 2.9518L163.917 4.4082C166.205 6.56164 167.778 9.33519 167.778 13.04H169.778ZM165.267 2.93259C163.93 1.74481 162.642 0.796625 161.05 0.159517C159.457 -0.477688 157.63 -0.776003 155.242 -0.776003V1.224C157.463 1.224 159.02 1.50168 160.307 2.01647C161.594 2.53136 162.682 3.31118 163.938 4.4274L165.267 2.93259ZM155.242 -0.776003C152.846 -0.776003 150.847 -0.475224 148.835 0.298647L149.553 2.16534C151.285 1.49921 153.03 1.224 155.242 1.224V-0.776003ZM148.878 0.28331C146.996 0.910742 145.596 1.85161 144.26 2.89064L145.488 4.46935C146.744 3.49237 147.937 2.70525 149.51 2.18068L148.878 0.28331ZM144.21 2.93259C142.752 4.22873 141.955 5.68649 141.342 7.37025L143.222 8.05374C143.762 6.56951 144.405 5.43526 145.539 4.4274L144.21 2.93259ZM141.388 7.26478C140.94 8.1596 140.783 9.14268 140.726 10.1001C140.67 11.0395 140.706 12.0849 140.706 13.04H142.706C142.706 11.9791 142.671 11.0805 142.722 10.2199C142.773 9.37731 142.904 8.70439 143.177 8.15921L141.388 7.26478ZM140.706 13.04V103.76H142.706V13.04H140.706ZM160.434 103.616C160.434 105.328 160.044 106.645 159.103 107.704L160.598 109.032C161.961 107.499 162.434 105.648 162.434 103.616H160.434ZM159.103 107.704C158.183 108.739 157.043 109.24 155.098 109.24V111.24C157.474 111.24 159.214 110.589 160.598 109.032L159.103 107.704ZM155.098 109.24C154.102 109.24 153.383 109.106 152.825 108.87C152.282 108.639 151.837 108.286 151.424 107.754L149.845 108.982C150.439 109.746 151.147 110.329 152.043 110.71C152.926 111.086 153.934 111.24 155.098 111.24V109.24ZM151.382 107.704C150.472 106.681 150.194 105.399 150.194 103.616H148.194C148.194 105.577 148.492 107.463 149.887 109.032L151.382 107.704ZM150.194 103.616V13.04H148.194V103.616H150.194ZM150.194 13.04C150.194 11.2344 150.482 9.99872 151.341 9.1391L149.927 7.72489C148.483 9.16927 148.194 11.1016 148.194 13.04H150.194ZM151.424 9.04594C151.852 8.49559 152.311 8.10363 152.863 7.84127C153.42 7.57696 154.13 7.41599 155.098 7.41599V5.41599C153.906 5.41599 152.889 5.61503 152.005 6.03472C151.118 6.45636 150.425 7.0724 149.845 7.81805L151.424 9.04594ZM155.098 7.41599C156.981 7.41599 158.146 8.02037 159.103 9.09636L160.598 7.76763C159.25 6.25162 157.535 5.41599 155.098 5.41599V7.41599ZM159.143 9.1391C160.036 10.0316 160.434 11.3103 160.434 13.04H162.434C162.434 11.0257 161.969 9.13641 160.557 7.72489L159.143 9.1391ZM160.434 13.04V103.616H162.434V13.04H160.434ZM226.362 0.799999V-0.200001H225.362V0.799999H226.362ZM226.362 116H225.362V117H226.362V116ZM233.562 116V117H234.562V116H233.562ZM233.562 63.728V62.728H232.562V63.728H233.562ZM249.547 60.272L250.211 61.0194L250.221 61.0099L250.232 61.0002L249.547 60.272ZM249.547 4.256L248.882 5.00341L248.885 5.00584L249.547 4.256ZM244.362 54.512L245.11 55.1764L245.115 55.1705L244.362 54.512ZM239.178 56.528V57.528H239.214L239.25 57.5255L239.178 56.528ZM233.562 56.528H232.562V57.528H233.562V56.528ZM233.562 6.848V5.848H232.562V6.848H233.562ZM239.178 6.848L239.25 5.85054L239.214 5.848H239.178V6.848ZM244.362 8.864L245.115 8.20547L245.11 8.19963L244.362 8.864ZM225.362 0.799999V116H227.362V0.799999H225.362ZM226.362 117H233.562V115H226.362V117ZM234.562 116V63.728H232.562V116H234.562ZM233.562 64.728H239.178V62.728H233.562V64.728ZM239.178 64.728C244.128 64.728 247.403 63.5151 250.211 61.0194L248.882 59.5246C246.506 61.6369 243.733 62.728 239.178 62.728V64.728ZM250.232 61.0002C252.882 58.5057 254.435 55.2175 254.435 50.912H252.435C252.435 54.6705 251.107 57.4303 248.861 59.5438L250.232 61.0002ZM254.435 50.912V13.616H252.435V50.912H254.435ZM254.435 13.616C254.435 9.32973 252.895 5.87657 250.208 3.50616L248.885 5.00584C251.094 6.95542 252.435 9.83826 252.435 13.616H254.435ZM250.211 3.50859C247.403 1.01289 244.128 -0.200001 239.178 -0.200001V1.8C243.733 1.8 246.506 2.89109 248.882 5.00341L250.211 3.50859ZM239.178 -0.200001H226.362V1.8H239.178V-0.200001ZM245.091 49.76C245.091 51.5207 244.467 52.8737 243.61 53.8535L245.115 55.1705C246.274 53.8463 247.091 52.0313 247.091 49.76H245.091ZM243.615 53.8476C242.729 54.8448 241.046 55.3921 239.107 55.5305L239.25 57.5255C241.343 57.3759 243.692 56.7712 245.11 55.1764L243.615 53.8476ZM239.178 55.528H233.562V57.528H239.178V55.528ZM234.562 56.528V6.848H232.562V56.528H234.562ZM233.562 7.848H239.178V5.848H233.562V7.848ZM239.107 7.84546C241.046 7.98393 242.729 8.53115 243.615 9.52836L245.11 8.19963C243.692 6.60484 241.343 6.00006 239.25 5.85054L239.107 7.84546ZM243.61 9.5225C244.467 10.5023 245.091 11.8553 245.091 13.616H247.091C247.091 11.3447 246.274 9.52971 245.115 8.20549L243.61 9.5225ZM245.091 13.616V49.76H247.091V13.616H245.091ZM320.387 110.816C320.387 113.144 318.53 115 316.203 115V117C319.635 117 322.387 114.248 322.387 110.816H320.387ZM316.203 115C313.875 115 312.019 113.144 312.019 110.816H310.019C310.019 114.248 312.77 117 316.203 117V115ZM312.019 110.816C312.019 108.488 313.875 106.632 316.203 106.632V104.632C312.77 104.632 310.019 107.384 310.019 110.816H312.019ZM316.203 106.632C318.53 106.632 320.387 108.488 320.387 110.816H322.387C322.387 107.384 319.635 104.632 316.203 104.632V106.632ZM406.445 4.68799L407.13 3.95979L407.12 3.95004L407.109 3.94058L406.445 4.68799ZM389.741 2.24L389.447 1.28422L389.435 1.28764L389.424 1.29131L389.741 2.24ZM385.133 4.832L385.791 5.5846L385.797 5.57941L385.133 4.832ZM382.253 8.71999L381.358 8.27278L381.35 8.28933L381.342 8.30619L382.253 8.71999ZM381.677 29.168L380.685 29.296L380.685 29.3002L381.677 29.168ZM384.125 41.408L385.097 41.1746L385.094 41.1613L385.09 41.148L384.125 41.408ZM387.437 51.632L388.362 51.2534L387.437 51.632ZM391.325 60.992L390.402 61.3782L390.405 61.3859L391.325 60.992ZM394.925 70.352L395.867 70.0176L395.862 70.0025L395.856 69.9876L394.925 70.352ZM398.813 85.328L397.829 85.5092L397.831 85.5216L397.834 85.534L398.813 85.328ZM398.813 109.376L398.065 108.712L398.043 108.736L398.023 108.762L398.813 109.376ZM388.013 109.376L387.223 109.99L387.243 110.016L387.265 110.04L388.013 109.376ZM386.429 81.584H387.429V80.584H386.429V81.584ZM378.941 81.584V80.584H377.941V81.584H378.941ZM382.829 113.984L382.143 114.712L382.154 114.722L382.164 114.731L382.829 113.984ZM399.533 116.576L399.827 117.532L399.873 117.518L399.917 117.499L399.533 116.576ZM404.141 113.984L404.755 114.773L404.804 114.735L404.848 114.691L404.141 113.984ZM407.021 109.952L406.11 109.538L407.021 109.952ZM407.597 89.648L406.605 89.776L406.605 89.7802L407.597 89.648ZM405.149 77.408L404.174 77.6329L404.178 77.6505L404.183 77.668L405.149 77.408ZM401.837 67.04L402.762 66.6614L402.759 66.6537L402.756 66.6461L401.837 67.04ZM399.533 60.992L400.481 60.6758L400.461 60.6155L400.434 60.5582L399.533 60.992ZM390.461 33.344L391.444 33.1628L391.442 33.1504L391.439 33.138L390.461 33.344ZM390.461 9.44L391.168 10.1471L391.212 10.1031L391.25 10.0539L390.461 9.44ZM401.261 9.44L402.013 8.78147L402.008 8.77563L401.261 9.44ZM402.989 37.088H401.989V38.088H402.989V37.088ZM410.333 37.088V38.088H411.333V37.088H410.333ZM411.333 14.192C411.333 9.89871 409.789 6.46245 407.13 3.95979L405.759 5.41619C407.996 7.52155 409.333 10.4213 409.333 14.192H411.333ZM407.109 3.94058C404.298 1.44206 400.877 0.231993 396.077 0.231993V2.23199C400.492 2.23199 403.407 3.32593 405.78 5.4354L407.109 3.94058ZM396.077 0.231993C393.797 0.231993 391.392 0.685539 389.447 1.28422L390.035 3.19578C391.833 2.64245 394.037 2.23199 396.077 2.23199V0.231993ZM389.424 1.29131C387.588 1.90339 385.88 2.82944 384.468 4.08459L385.797 5.57941C386.977 4.53055 388.437 3.72861 390.057 3.18868L389.424 1.29131ZM384.474 4.07942C383.198 5.19573 382.118 6.75227 381.358 8.27278L383.147 9.16721C383.827 7.80772 384.763 6.48425 385.791 5.58458L384.474 4.07942ZM381.342 8.30619C380.543 10.0639 380.245 12.0907 380.245 14.192H382.245C382.245 12.2613 382.522 10.5441 383.163 9.13379L381.342 8.30619ZM380.245 14.192C380.245 19.6146 380.098 24.7491 380.685 29.296L382.668 29.04C382.103 24.6589 382.245 19.7134 382.245 14.192H380.245ZM380.685 29.3002C381.267 33.665 382.14 37.8837 383.159 41.668L385.09 41.148C384.093 37.4443 383.238 33.311 382.668 29.0358L380.685 29.3002ZM383.152 41.6414C384.029 45.2953 385.198 48.7999 386.511 52.0106L388.362 51.2534C387.084 48.1281 385.948 44.7206 385.097 41.1746L383.152 41.6414ZM386.511 52.0106C387.16 53.598 388.134 55.9407 388.944 57.8846C389.349 58.857 389.713 59.7303 389.977 60.3605C390.108 60.6757 390.215 60.93 390.288 61.1056C390.325 61.1934 390.353 61.2615 390.373 61.3077C390.382 61.3308 390.39 61.3484 390.395 61.3602C390.397 61.3661 390.399 61.3706 390.4 61.3736C390.401 61.3751 390.401 61.3762 390.402 61.377C390.402 61.3774 390.402 61.3777 390.402 61.3778C390.402 61.3779 390.402 61.378 390.402 61.3781C390.402 61.3781 390.402 61.3781 391.325 60.992C392.247 60.6059 392.247 60.6058 392.247 60.6058C392.247 60.6057 392.247 60.6057 392.247 60.6056C392.247 60.6054 392.247 60.6051 392.247 60.6047C392.246 60.604 392.246 60.6029 392.245 60.6014C392.244 60.5984 392.242 60.594 392.24 60.5881C392.235 60.5763 392.227 60.5587 392.218 60.5357C392.198 60.4896 392.17 60.4216 392.133 60.3339C392.06 60.1585 391.954 59.9043 391.822 59.5894C391.559 58.9597 391.195 58.087 390.79 57.1154C389.98 55.1713 389.009 52.834 388.362 51.2534L386.511 52.0106ZM390.405 61.3859C391.698 64.4012 392.669 67.332 393.993 70.7164L395.856 69.9876C394.588 66.748 393.544 63.6308 392.244 60.5981L390.405 61.3859ZM393.982 70.6864C395.545 75.0907 396.829 80.078 397.829 85.5092L399.796 85.1468C398.781 79.634 397.472 74.5413 395.867 70.0176L393.982 70.6864ZM397.834 85.534C398.966 90.9087 399.397 97.3105 399.397 104.624H401.397C401.397 97.2495 400.964 90.6913 399.791 85.122L397.834 85.534ZM399.397 104.624C399.397 106.336 399.006 107.653 398.065 108.712L399.56 110.04C400.923 108.507 401.397 106.656 401.397 104.624H399.397ZM398.023 108.762C397.684 109.198 397.095 109.578 396.27 109.848C395.454 110.114 394.483 110.248 393.485 110.248V112.248C394.646 112.248 395.835 112.094 396.891 111.748C397.939 111.406 398.933 110.85 399.602 109.99L398.023 108.762ZM393.485 110.248C391.427 110.248 389.628 109.688 388.76 108.712L387.265 110.04C388.702 111.656 391.222 112.248 393.485 112.248V110.248ZM388.802 108.762C387.932 107.644 387.429 106.276 387.429 104.624H385.429C385.429 106.716 386.077 108.516 387.223 109.99L388.802 108.762ZM387.429 104.624V81.584H385.429V104.624H387.429ZM386.429 80.584H378.941V82.584H386.429V80.584ZM377.941 81.584V104.624H379.941V81.584H377.941ZM377.941 104.624C377.941 108.929 379.493 112.218 382.143 114.712L383.514 113.256C381.268 111.142 379.941 108.383 379.941 104.624H377.941ZM382.164 114.731C384.975 117.23 388.396 118.44 393.197 118.44V116.44C388.781 116.44 385.866 115.346 383.493 113.237L382.164 114.731ZM393.197 118.44C395.58 118.44 397.842 118.143 399.827 117.532L399.239 115.62C397.48 116.161 395.421 116.44 393.197 116.44V118.44ZM399.917 117.499C401.702 116.755 403.37 115.85 404.755 114.773L403.527 113.195C402.319 114.134 400.819 114.957 399.148 115.653L399.917 117.499ZM404.848 114.691C406.06 113.479 407.149 112.087 407.931 110.366L406.11 109.538C405.453 110.985 404.526 112.185 403.434 113.277L404.848 114.691ZM407.931 110.366C408.727 108.615 409.029 106.736 409.029 104.624H407.029C407.029 106.544 406.755 108.121 406.11 109.538L407.931 110.366ZM409.029 104.624C409.029 99.0602 409.175 93.9215 408.588 89.5158L406.605 89.7802C407.17 94.0145 407.029 98.9558 407.029 104.624H409.029ZM408.588 89.52C408.006 85.0049 407.132 80.9285 406.114 77.148L404.183 77.668C405.181 81.3755 406.035 85.3631 406.605 89.776L408.588 89.52ZM406.123 77.1831C405.246 73.3806 404.076 69.8731 402.762 66.6614L400.911 67.4186C402.189 70.5429 403.324 73.9474 404.174 77.6329L406.123 77.1831ZM402.756 66.6461C401.902 64.6538 401.192 62.8077 400.481 60.6758L398.584 61.3082C399.313 63.4963 400.043 65.3942 400.917 67.4339L402.756 66.6461ZM400.434 60.5582C398.582 56.712 396.867 52.4273 395.291 47.9856L393.406 48.6544C394.998 53.1407 396.74 57.496 398.632 61.4258L400.434 60.5582ZM395.291 47.9856C393.728 43.5812 392.445 38.594 391.444 33.1628L389.477 33.5252C390.493 39.038 391.801 44.1307 393.406 48.6544L395.291 47.9856ZM391.439 33.138C390.308 27.7628 389.877 21.3607 389.877 14.192H387.877C387.877 21.4233 388.31 27.9811 389.482 33.55L391.439 33.138ZM389.877 14.192C389.877 12.3067 390.281 11.0341 391.168 10.1471L389.754 8.73289C388.337 10.1499 387.877 12.0453 387.877 14.192H389.877ZM391.25 10.0539C391.603 9.60057 392.211 9.18658 393.036 8.88527C393.851 8.58735 394.814 8.424 395.789 8.424V6.424C394.603 6.424 393.406 6.62065 392.349 7.00673C391.302 7.38942 390.327 7.98342 389.671 8.82606L391.25 10.0539ZM395.789 8.424C397.787 8.424 399.62 9.09945 400.513 10.1044L402.008 8.77563C400.597 7.18855 398.111 6.424 395.789 6.424V8.424ZM400.508 10.0985C401.365 11.0783 401.989 12.4313 401.989 14.192H403.989C403.989 11.9207 403.172 10.1057 402.013 8.78149L400.508 10.0985ZM401.989 14.192V37.088H403.989V14.192H401.989ZM402.989 38.088H410.333V36.088H402.989V38.088ZM411.333 37.088V14.192H409.333V37.088H411.333ZM487.828 61.568V62.568H488.828V61.568H487.828ZM475.156 61.568H474.156V62.568H475.156V61.568ZM475.156 0.655991H476.156V-0.344009H475.156V0.655991ZM467.956 0.655991V-0.344009H466.956V0.655991H467.956ZM467.956 116H466.956V117H467.956V116ZM475.156 116V117H476.156V116H475.156ZM475.156 68.912V67.912H474.156V68.912H475.156ZM487.828 68.912H488.828V67.912H487.828V68.912ZM487.828 116H486.828V117H487.828V116ZM495.028 116V117H496.028V116H495.028ZM495.028 0.655991H496.028V-0.344009H495.028V0.655991ZM487.828 0.655991V-0.344009H486.828V0.655991H487.828ZM487.828 60.568H475.156V62.568H487.828V60.568ZM476.156 61.568V0.655991H474.156V61.568H476.156ZM475.156 -0.344009H467.956V1.65599H475.156V-0.344009ZM466.956 0.655991V116H468.956V0.655991H466.956ZM467.956 117H475.156V115H467.956V117ZM476.156 116V68.912H474.156V116H476.156ZM475.156 69.912H487.828V67.912H475.156V69.912ZM486.828 68.912V116H488.828V68.912H486.828ZM487.828 117H495.028V115H487.828V117ZM496.028 116V0.655991H494.028V116H496.028ZM495.028 -0.344009H487.828V1.65599H495.028V-0.344009ZM486.828 0.655991V61.568H488.828V0.655991H486.828ZM553.188 109.088L554.117 108.717L554.108 108.695L554.099 108.674L553.188 109.088ZM555.781 112.976L556.445 112.229L555.781 112.976ZM560.101 115.568L559.784 116.517L559.795 116.52L559.806 116.524L560.101 115.568ZM575.508 112.976L574.847 112.226L574.844 112.229L575.508 112.976ZM575.508 3.68L576.194 2.9518L576.184 2.94204L576.173 2.93259L575.508 3.68ZM560.101 1.23199L560.417 2.18068L560.438 2.17349L560.459 2.16534L560.101 1.23199ZM555.781 3.68L555.167 2.89064L555.141 2.91079L555.116 2.93259L555.781 3.68ZM553.188 7.71199L554.083 8.15921L554.109 8.10778L554.128 8.05374L553.188 7.71199ZM570.757 108.368L570.009 107.704V107.704L570.757 108.368ZM561.541 108.368L562.33 107.754L562.31 107.728L562.288 107.704L561.541 108.368ZM561.541 8.432L562.248 9.1391L562.292 9.09508L562.33 9.04594L561.541 8.432ZM570.757 8.432L570.009 9.09636L570.029 9.11832L570.049 9.1391L570.757 8.432ZM551.612 103.76C551.612 105.639 551.444 107.666 552.278 109.502L554.099 108.674C553.493 107.342 553.612 105.913 553.612 103.76H551.612ZM552.26 109.459C552.869 110.983 553.663 112.432 555.116 113.723L556.445 112.229C555.306 111.216 554.66 110.073 554.117 108.717L552.26 109.459ZM555.116 113.723C556.484 114.939 557.895 115.887 559.784 116.517L560.417 114.619C558.85 114.097 557.669 113.317 556.445 112.229L555.116 113.723ZM559.806 116.524C561.78 117.131 563.751 117.432 566.148 117.432V115.432C563.938 115.432 562.165 115.157 560.395 114.612L559.806 116.524ZM566.148 117.432C568.536 117.432 570.363 117.134 571.956 116.496C573.549 115.859 574.837 114.911 576.173 113.723L574.844 112.229C573.588 113.345 572.5 114.125 571.213 114.64C569.926 115.154 568.369 115.432 566.148 115.432V117.432ZM576.17 113.726C578.805 111.401 580.685 108.115 580.685 103.76H578.685C578.685 107.469 577.109 110.231 574.847 112.226L576.17 113.726ZM580.685 103.76V13.04H578.685V103.76H580.685ZM580.685 13.04C580.685 8.68081 578.802 5.40634 576.194 2.9518L574.823 4.4082C577.111 6.56164 578.685 9.33519 578.685 13.04H580.685ZM576.173 2.93259C574.837 1.74481 573.549 0.796625 571.956 0.159517C570.363 -0.477688 568.536 -0.776003 566.148 -0.776003V1.224C568.369 1.224 569.926 1.50168 571.213 2.01647C572.5 2.53136 573.588 3.31118 574.844 4.4274L576.173 2.93259ZM566.148 -0.776003C563.752 -0.776003 561.754 -0.475224 559.742 0.298647L560.459 2.16534C562.191 1.49921 563.937 1.224 566.148 1.224V-0.776003ZM559.784 0.28331C557.902 0.910742 556.502 1.85161 555.167 2.89064L556.394 4.46935C557.651 3.49237 558.843 2.70525 560.417 2.18068L559.784 0.28331ZM555.116 2.93259C553.658 4.22873 552.861 5.68649 552.249 7.37025L554.128 8.05374C554.668 6.56951 555.311 5.43526 556.445 4.4274L555.116 2.93259ZM552.294 7.26478C551.847 8.1596 551.69 9.14268 551.632 10.1001C551.576 11.0395 551.612 12.0849 551.612 13.04H553.612C553.612 11.9791 553.577 11.0805 553.629 10.2199C553.679 9.37731 553.81 8.70439 554.083 8.15921L552.294 7.26478ZM551.612 13.04V103.76H553.612V13.04H551.612ZM571.341 103.616C571.341 105.328 570.95 106.645 570.009 107.704L571.504 109.032C572.867 107.499 573.341 105.648 573.341 103.616H571.341ZM570.009 107.704C569.089 108.739 567.949 109.24 566.005 109.24V111.24C568.38 111.24 570.12 110.589 571.504 109.032L570.009 107.704ZM566.005 109.24C565.009 109.24 564.289 109.106 563.732 108.87C563.188 108.639 562.743 108.286 562.33 107.754L560.751 108.982C561.346 109.746 562.053 110.329 562.949 110.71C563.832 111.086 564.84 111.24 566.005 111.24V109.24ZM562.288 107.704C561.379 106.681 561.101 105.399 561.101 103.616H559.101C559.101 105.577 559.398 107.463 560.793 109.032L562.288 107.704ZM561.101 103.616V13.04H559.101V103.616H561.101ZM561.101 13.04C561.101 11.2344 561.388 9.99872 562.248 9.1391L560.833 7.72489C559.389 9.16927 559.101 11.1016 559.101 13.04H561.101ZM562.33 9.04594C562.758 8.49559 563.217 8.10363 563.77 7.84127C564.326 7.57696 565.036 7.41599 566.005 7.41599V5.41599C564.813 5.41599 563.795 5.61503 562.911 6.03472C562.024 6.45636 561.331 7.0724 560.751 7.81805L562.33 9.04594ZM566.005 7.41599C567.888 7.41599 569.053 8.02037 570.009 9.09636L571.504 7.76763C570.156 6.25162 568.441 5.41599 566.005 5.41599V7.41599ZM570.049 9.1391C570.942 10.0316 571.341 11.3103 571.341 13.04H573.341C573.341 11.0257 572.875 9.13641 571.464 7.72489L570.049 9.1391ZM571.341 13.04V103.616H573.341V13.04H571.341ZM637.269 0.799999V-0.200001H636.269V0.799999H637.269ZM637.269 116H636.269V117H637.269V116ZM644.469 116V117H645.469V116H644.469ZM644.469 63.728V62.728H643.469V63.728H644.469ZM660.453 60.272L661.117 61.0194L661.128 61.0099L661.138 61.0002L660.453 60.272ZM660.453 4.256L659.788 5.00341L659.791 5.00584L660.453 4.256ZM655.269 54.512L656.016 55.1764L656.021 55.1705L655.269 54.512ZM650.085 56.528V57.528H650.12L650.156 57.5255L650.085 56.528ZM644.469 56.528H643.469V57.528H644.469V56.528ZM644.469 6.848V5.848H643.469V6.848H644.469ZM650.085 6.848L650.156 5.85054L650.12 5.848H650.085V6.848ZM655.269 8.864L656.021 8.20547L656.016 8.19963L655.269 8.864ZM636.269 0.799999V116H638.269V0.799999H636.269ZM637.269 117H644.469V115H637.269V117ZM645.469 116V63.728H643.469V116H645.469ZM644.469 64.728H650.085V62.728H644.469V64.728ZM650.085 64.728C655.034 64.728 658.309 63.5151 661.117 61.0194L659.788 59.5246C657.412 61.6369 654.639 62.728 650.085 62.728V64.728ZM661.138 61.0002C663.789 58.5057 665.341 55.2175 665.341 50.912H663.341C663.341 54.6705 662.013 57.4303 659.767 59.5438L661.138 61.0002ZM665.341 50.912V13.616H663.341V50.912H665.341ZM665.341 13.616C665.341 9.32973 663.801 5.87657 661.114 3.50616L659.791 5.00584C662.001 6.95542 663.341 9.83826 663.341 13.616H665.341ZM661.117 3.50859C658.309 1.01289 655.034 -0.200001 650.085 -0.200001V1.8C654.639 1.8 657.412 2.89109 659.788 5.00341L661.117 3.50859ZM650.085 -0.200001H637.269V1.8H650.085V-0.200001ZM655.997 49.76C655.997 51.5207 655.373 52.8737 654.516 53.8535L656.021 55.1705C657.18 53.8463 657.997 52.0313 657.997 49.76H655.997ZM654.521 53.8476C653.635 54.8448 651.952 55.3921 650.013 55.5305L650.156 57.5255C652.249 57.3759 654.599 56.7712 656.016 55.1764L654.521 53.8476ZM650.085 55.528H644.469V57.528H650.085V55.528ZM645.469 56.528V6.848H643.469V56.528H645.469ZM644.469 7.848H650.085V5.848H644.469V7.848ZM650.013 7.84546C651.952 7.98393 653.635 8.53115 654.521 9.52836L656.016 8.19963C654.599 6.60484 652.249 6.00006 650.156 5.85054L650.013 7.84546ZM654.516 9.5225C655.373 10.5023 655.997 11.8553 655.997 13.616H657.997C657.997 11.3447 657.18 9.52971 656.021 8.20549L654.516 9.5225ZM655.997 13.616V49.76H657.997V13.616H655.997ZM731.293 110.816C731.293 113.144 729.437 115 727.109 115V117C730.541 117 733.293 114.248 733.293 110.816H731.293ZM727.109 115C724.781 115 722.925 113.144 722.925 110.816H720.925C720.925 114.248 723.677 117 727.109 117V115ZM722.925 110.816C722.925 108.488 724.781 106.632 727.109 106.632V104.632C723.677 104.632 720.925 107.384 720.925 110.816H722.925ZM727.109 106.632C729.437 106.632 731.293 108.488 731.293 110.816H733.293C733.293 107.384 730.541 104.632 727.109 104.632V106.632ZM817.351 4.68799L818.036 3.95979L818.026 3.95004L818.015 3.94058L817.351 4.68799ZM800.647 2.24L800.353 1.28422L800.342 1.28764L800.331 1.29131L800.647 2.24ZM796.039 4.832L796.697 5.5846L796.703 5.57941L796.039 4.832ZM793.159 8.71999L792.264 8.27278L792.256 8.28933L792.249 8.30619L793.159 8.71999ZM792.583 29.168L791.591 29.296L791.592 29.3002L792.583 29.168ZM795.031 41.408L796.003 41.1746L796 41.1613L795.997 41.148L795.031 41.408ZM798.343 51.632L799.268 51.2534L798.343 51.632ZM802.231 60.992L801.308 61.3782L801.312 61.3859L802.231 60.992ZM805.831 70.352L806.773 70.0176L806.768 70.0025L806.762 69.9876L805.831 70.352ZM809.719 85.328L808.735 85.5092L808.738 85.5216L808.74 85.534L809.719 85.328ZM809.719 109.376L808.971 108.712L808.95 108.736L808.93 108.762L809.719 109.376ZM798.919 109.376L798.13 109.99L798.15 110.016L798.171 110.04L798.919 109.376ZM797.335 81.584H798.335V80.584H797.335V81.584ZM789.847 81.584V80.584H788.847V81.584H789.847ZM793.735 113.984L793.049 114.712L793.06 114.722L793.07 114.731L793.735 113.984ZM810.439 116.576L810.733 117.532L810.779 117.518L810.823 117.499L810.439 116.576ZM815.047 113.984L815.661 114.773L815.71 114.735L815.754 114.691L815.047 113.984ZM817.927 109.952L817.016 109.538L817.927 109.952ZM818.503 89.648L817.511 89.776L817.512 89.7802L818.503 89.648ZM816.055 77.408L815.081 77.6329L815.085 77.6505L815.089 77.668L816.055 77.408ZM812.743 67.04L813.668 66.6614L813.665 66.6537L813.662 66.6461L812.743 67.04ZM810.439 60.992L811.388 60.6758L811.367 60.6155L811.34 60.5582L810.439 60.992ZM801.367 33.344L802.35 33.1628L802.348 33.1504L802.345 33.138L801.367 33.344ZM801.367 9.44L802.074 10.1471L802.118 10.1031L802.156 10.0539L801.367 9.44ZM812.167 9.44L812.919 8.78147L812.914 8.77563L812.167 9.44ZM813.895 37.088H812.895V38.088H813.895V37.088ZM821.239 37.088V38.088H822.239V37.088H821.239ZM822.239 14.192C822.239 9.89871 820.695 6.46245 818.036 3.95979L816.666 5.41619C818.902 7.52155 820.239 10.4213 820.239 14.192H822.239ZM818.015 3.94058C815.204 1.44206 811.783 0.231993 806.983 0.231993V2.23199C811.398 2.23199 814.313 3.32593 816.687 5.4354L818.015 3.94058ZM806.983 0.231993C804.703 0.231993 802.299 0.685539 800.353 1.28422L800.941 3.19578C802.739 2.64245 804.943 2.23199 806.983 2.23199V0.231993ZM800.331 1.29131C798.494 1.90339 796.787 2.82944 795.375 4.08459L796.703 5.57941C797.883 4.53055 799.343 3.72861 800.963 3.18868L800.331 1.29131ZM795.38 4.07942C794.105 5.19573 793.025 6.75227 792.264 8.27278L794.053 9.16721C794.733 7.80772 795.669 6.48425 796.697 5.58458L795.38 4.07942ZM792.249 8.30619C791.45 10.0639 791.151 12.0907 791.151 14.192H793.151C793.151 12.2613 793.428 10.5441 794.069 9.13379L792.249 8.30619ZM791.151 14.192C791.151 19.6146 791.004 24.7491 791.591 29.296L793.575 29.04C793.009 24.6589 793.151 19.7134 793.151 14.192H791.151ZM791.592 29.3002C792.174 33.665 793.046 37.8837 794.065 41.668L795.997 41.148C794.999 37.4443 794.144 33.311 793.574 29.0358L791.592 29.3002ZM794.058 41.6414C794.935 45.2953 796.104 48.7999 797.417 52.0106L799.268 51.2534C797.99 48.1281 796.854 44.7206 796.003 41.1746L794.058 41.6414ZM797.417 52.0106C798.067 53.598 799.04 55.9407 799.85 57.8846C800.255 58.857 800.62 59.7303 800.883 60.3605C801.015 60.6757 801.121 60.93 801.194 61.1056C801.231 61.1934 801.26 61.2615 801.279 61.3077C801.289 61.3308 801.296 61.3484 801.301 61.3602C801.303 61.3661 801.305 61.3706 801.307 61.3736C801.307 61.3751 801.308 61.3762 801.308 61.377C801.308 61.3774 801.308 61.3777 801.308 61.3778C801.308 61.3779 801.308 61.378 801.308 61.3781C801.308 61.3781 801.308 61.3781 802.231 60.992C803.153 60.6059 803.153 60.6058 803.153 60.6058C803.153 60.6057 803.153 60.6057 803.153 60.6056C803.153 60.6054 803.153 60.6051 803.153 60.6047C803.153 60.604 803.152 60.6029 803.151 60.6014C803.15 60.5984 803.148 60.594 803.146 60.5881C803.141 60.5763 803.134 60.5587 803.124 60.5357C803.105 60.4896 803.076 60.4216 803.04 60.3339C802.966 60.1585 802.86 59.9043 802.728 59.5894C802.465 58.9597 802.101 58.087 801.696 57.1154C800.886 55.1713 799.915 52.834 799.268 51.2534L797.417 52.0106ZM801.312 61.3859C802.604 64.4012 803.575 67.332 804.9 70.7164L806.762 69.9876C805.494 66.748 804.45 63.6308 803.15 60.5981L801.312 61.3859ZM804.888 70.6864C806.451 75.0907 807.735 80.078 808.735 85.5092L810.702 85.1468C809.687 79.634 808.378 74.5413 806.773 70.0176L804.888 70.6864ZM808.74 85.534C809.872 90.9087 810.303 97.3105 810.303 104.624H812.303C812.303 97.2495 811.87 90.6913 810.697 85.122L808.74 85.534ZM810.303 104.624C810.303 106.336 809.912 107.653 808.971 108.712L810.466 110.04C811.83 108.507 812.303 106.656 812.303 104.624H810.303ZM808.93 108.762C808.59 109.198 808.001 109.578 807.176 109.848C806.361 110.114 805.389 110.248 804.391 110.248V112.248C805.553 112.248 806.741 112.094 807.798 111.748C808.845 111.406 809.839 110.85 810.508 109.99L808.93 108.762ZM804.391 110.248C802.333 110.248 800.534 109.688 799.666 108.712L798.171 110.04C799.608 111.656 802.128 112.248 804.391 112.248V110.248ZM799.708 108.762C798.838 107.644 798.335 106.276 798.335 104.624H796.335C796.335 106.716 796.983 108.516 798.13 109.99L799.708 108.762ZM798.335 104.624V81.584H796.335V104.624H798.335ZM797.335 80.584H789.847V82.584H797.335V80.584ZM788.847 81.584V104.624H790.847V81.584H788.847ZM788.847 104.624C788.847 108.929 790.399 112.218 793.049 114.712L794.42 113.256C792.175 111.142 790.847 108.383 790.847 104.624H788.847ZM793.07 114.731C795.881 117.23 799.302 118.44 804.103 118.44V116.44C799.687 116.44 796.772 115.346 794.399 113.237L793.07 114.731ZM804.103 118.44C806.486 118.44 808.748 118.143 810.733 117.532L810.145 115.62C808.386 116.161 806.328 116.44 804.103 116.44V118.44ZM810.823 117.499C812.609 116.755 814.276 115.85 815.661 114.773L814.433 113.195C813.226 114.134 811.725 114.957 810.054 115.653L810.823 117.499ZM815.754 114.691C816.966 113.479 818.055 112.087 818.837 110.366L817.016 109.538C816.359 110.985 815.432 112.185 814.34 113.277L815.754 114.691ZM818.837 110.366C819.633 108.615 819.935 106.736 819.935 104.624H817.935C817.935 106.544 817.661 108.121 817.016 109.538L818.837 110.366ZM819.935 104.624C819.935 99.0602 820.082 93.9215 819.494 89.5158L817.512 89.7802C818.076 94.0145 817.935 98.9558 817.935 104.624H819.935ZM819.495 89.52C818.912 85.0049 818.038 80.9285 817.021 77.148L815.089 77.668C816.087 81.3755 816.942 85.3631 817.511 89.776L819.495 89.52ZM817.029 77.1831C816.152 73.3806 814.982 69.8731 813.668 66.6614L811.817 67.4186C813.095 70.5429 814.23 73.9474 815.081 77.6329L817.029 77.1831ZM813.662 66.6461C812.808 64.6538 812.098 62.8077 811.388 60.6758L809.49 61.3082C810.22 63.4963 810.95 65.3942 811.824 67.4339L813.662 66.6461ZM811.34 60.5582C809.488 56.712 807.773 52.4273 806.197 47.9856L804.312 48.6544C805.904 53.1407 807.646 57.496 809.538 61.4258L811.34 60.5582ZM806.197 47.9856C804.634 43.5812 803.351 38.594 802.35 33.1628L800.383 33.5252C801.399 39.038 802.707 44.1307 804.312 48.6544L806.197 47.9856ZM802.345 33.138C801.214 27.7628 800.783 21.3607 800.783 14.192H798.783C798.783 21.4233 799.216 27.9811 800.388 33.55L802.345 33.138ZM800.783 14.192C800.783 12.3067 801.187 11.0341 802.074 10.1471L800.66 8.73289C799.243 10.1499 798.783 12.0453 798.783 14.192H800.783ZM802.156 10.0539C802.509 9.60057 803.117 9.18658 803.942 8.88527C804.757 8.58735 805.72 8.424 806.695 8.424V6.424C805.51 6.424 804.312 6.62065 803.256 7.00673C802.208 7.38942 801.233 7.98342 800.578 8.82606L802.156 10.0539ZM806.695 8.424C808.693 8.424 810.526 9.09945 811.419 10.1044L812.914 8.77563C811.504 7.18855 809.017 6.424 806.695 6.424V8.424ZM811.414 10.0985C812.272 11.0783 812.895 12.4313 812.895 14.192H814.895C814.895 11.9207 814.078 10.1057 812.919 8.78149L811.414 10.0985ZM812.895 14.192V37.088H814.895V14.192H812.895ZM813.895 38.088H821.239V36.088H813.895V38.088ZM822.239 37.088V14.192H820.239V37.088H822.239ZM898.734 61.568V62.568H899.734V61.568H898.734ZM886.062 61.568H885.062V62.568H886.062V61.568ZM886.062 0.655991H887.062V-0.344009H886.062V0.655991ZM878.862 0.655991V-0.344009H877.862V0.655991H878.862ZM878.862 116H877.862V117H878.862V116ZM886.062 116V117H887.062V116H886.062ZM886.062 68.912V67.912H885.062V68.912H886.062ZM898.734 68.912H899.734V67.912H898.734V68.912ZM898.734 116H897.734V117H898.734V116ZM905.935 116V117H906.935V116H905.935ZM905.935 0.655991H906.935V-0.344009H905.935V0.655991ZM898.734 0.655991V-0.344009H897.734V0.655991H898.734ZM898.734 60.568H886.062V62.568H898.734V60.568ZM887.062 61.568V0.655991H885.062V61.568H887.062ZM886.062 -0.344009H878.862V1.65599H886.062V-0.344009ZM877.862 0.655991V116H879.862V0.655991H877.862ZM878.862 117H886.062V115H878.862V117ZM887.062 116V68.912H885.062V116H887.062ZM886.062 69.912H898.734V67.912H886.062V69.912ZM897.734 68.912V116H899.734V68.912H897.734ZM898.734 117H905.935V115H898.734V117ZM906.935 116V0.655991H904.935V116H906.935ZM905.935 -0.344009H898.734V1.65599H905.935V-0.344009ZM897.734 0.655991V61.568H899.734V0.655991H897.734ZM964.095 109.088L965.023 108.717L965.015 108.695L965.005 108.674L964.095 109.088ZM966.687 112.976L967.351 112.229L966.687 112.976ZM971.007 115.568L970.691 116.517L970.702 116.52L970.713 116.524L971.007 115.568ZM986.415 112.976L985.753 112.226L985.75 112.229L986.415 112.976ZM986.415 3.68L987.1 2.9518L987.09 2.94204L987.079 2.93259L986.415 3.68ZM971.007 1.23199L971.323 2.18068L971.344 2.17349L971.366 2.16534L971.007 1.23199ZM966.687 3.68L966.073 2.89064L966.047 2.91079L966.022 2.93259L966.687 3.68ZM964.095 7.71199L964.989 8.15921L965.015 8.10778L965.035 8.05374L964.095 7.71199ZM981.663 108.368L980.915 107.704V107.704L981.663 108.368ZM972.447 108.368L973.236 107.754L973.216 107.728L973.194 107.704L972.447 108.368ZM972.447 8.432L973.154 9.1391L973.198 9.09508L973.236 9.04594L972.447 8.432ZM981.663 8.432L980.915 9.09636L980.935 9.11832L980.956 9.1391L981.663 8.432ZM962.519 103.76C962.519 105.639 962.35 107.666 963.184 109.502L965.005 108.674C964.4 107.342 964.519 105.913 964.519 103.76H962.519ZM963.166 109.459C963.776 110.983 964.57 112.432 966.022 113.723L967.351 112.229C966.212 111.216 965.566 110.073 965.023 108.717L963.166 109.459ZM966.022 113.723C967.39 114.939 968.801 115.887 970.691 116.517L971.323 114.619C969.757 114.097 968.576 113.317 967.351 112.229L966.022 113.723ZM970.713 116.524C972.686 117.131 974.658 117.432 977.055 117.432V115.432C974.844 115.432 973.071 115.157 971.301 114.612L970.713 116.524ZM977.055 117.432C979.442 117.432 981.269 117.134 982.862 116.496C984.455 115.859 985.743 114.911 987.079 113.723L985.75 112.229C984.495 113.345 983.407 114.125 982.119 114.64C980.832 115.154 979.276 115.432 977.055 115.432V117.432ZM987.076 113.726C989.711 111.401 991.591 108.115 991.591 103.76H989.591C989.591 107.469 988.015 110.231 985.753 112.226L987.076 113.726ZM991.591 103.76V13.04H989.591V103.76H991.591ZM991.591 13.04C991.591 8.68081 989.708 5.40634 987.1 2.9518L985.729 4.4082C988.017 6.56164 989.591 9.33519 989.591 13.04H991.591ZM987.079 2.93259C985.743 1.74481 984.455 0.796625 982.862 0.159517C981.269 -0.477688 979.442 -0.776003 977.055 -0.776003V1.224C979.276 1.224 980.832 1.50168 982.119 2.01647C983.407 2.53136 984.495 3.31118 985.75 4.4274L987.079 2.93259ZM977.055 -0.776003C974.659 -0.776003 972.66 -0.475224 970.648 0.298647L971.366 2.16534C973.098 1.49921 974.843 1.224 977.055 1.224V-0.776003ZM970.691 0.28331C968.808 0.910742 967.409 1.85161 966.073 2.89064L967.301 4.46935C968.557 3.49237 969.749 2.70525 971.323 2.18068L970.691 0.28331ZM966.022 2.93259C964.564 4.22873 963.767 5.68649 963.155 7.37025L965.035 8.05374C965.574 6.56951 966.217 5.43526 967.351 4.4274L966.022 2.93259ZM963.2 7.26478C962.753 8.1596 962.596 9.14268 962.539 10.1001C962.482 11.0395 962.519 12.0849 962.519 13.04H964.519C964.519 11.9791 964.483 11.0805 964.535 10.2199C964.586 9.37731 964.717 8.70439 964.989 8.15921L963.2 7.26478ZM962.519 13.04V103.76H964.519V13.04H962.519ZM982.247 103.616C982.247 105.328 981.856 106.645 980.915 107.704L982.41 109.032C983.773 107.499 984.247 105.648 984.247 103.616H982.247ZM980.915 107.704C979.995 108.739 978.855 109.24 976.911 109.24V111.24C979.286 111.24 981.026 110.589 982.41 109.032L980.915 107.704ZM976.911 109.24C975.915 109.24 975.195 109.106 974.638 108.87C974.094 108.639 973.65 108.286 973.236 107.754L971.657 108.982C972.252 109.746 972.959 110.329 973.856 110.71C974.739 111.086 975.747 111.24 976.911 111.24V109.24ZM973.194 107.704C972.285 106.681 972.007 105.399 972.007 103.616H970.007C970.007 105.577 970.305 107.463 971.699 109.032L973.194 107.704ZM972.007 103.616V13.04H970.007V103.616H972.007ZM972.007 13.04C972.007 11.2344 972.294 9.99872 973.154 9.1391L971.74 7.72489C970.295 9.16927 970.007 11.1016 970.007 13.04H972.007ZM973.236 9.04594C973.664 8.49559 974.124 8.10363 974.676 7.84127C975.232 7.57696 975.943 7.41599 976.911 7.41599V5.41599C975.719 5.41599 974.701 5.61503 973.818 6.03472C972.93 6.45636 972.237 7.0724 971.657 7.81805L973.236 9.04594ZM976.911 7.41599C978.794 7.41599 979.959 8.02037 980.915 9.09636L982.41 7.76763C981.063 6.25162 979.348 5.41599 976.911 5.41599V7.41599ZM980.956 9.1391C981.848 10.0316 982.247 11.3103 982.247 13.04H984.247C984.247 11.0257 983.781 9.13641 982.37 7.72489L980.956 9.1391ZM982.247 13.04V103.616H984.247V13.04H982.247ZM1048.18 0.799999V-0.200001H1047.18V0.799999H1048.18ZM1048.18 116H1047.18V117H1048.18V116ZM1055.38 116V117H1056.38V116H1055.38ZM1055.38 63.728V62.728H1054.38V63.728H1055.38ZM1071.36 60.272L1072.02 61.0194L1072.03 61.0099L1072.04 61.0002L1071.36 60.272ZM1071.36 4.256L1070.69 5.00341L1070.7 5.00584L1071.36 4.256ZM1066.18 54.512L1066.92 55.1764L1066.93 55.1705L1066.18 54.512ZM1060.99 56.528V57.528H1061.03L1061.06 57.5255L1060.99 56.528ZM1055.38 56.528H1054.38V57.528H1055.38V56.528ZM1055.38 6.848V5.848H1054.38V6.848H1055.38ZM1060.99 6.848L1061.06 5.85054L1061.03 5.848H1060.99V6.848ZM1066.18 8.864L1066.93 8.20547L1066.92 8.19963L1066.18 8.864ZM1047.18 0.799999V116H1049.18V0.799999H1047.18ZM1048.18 117H1055.38V115H1048.18V117ZM1056.38 116V63.728H1054.38V116H1056.38ZM1055.38 64.728H1060.99V62.728H1055.38V64.728ZM1060.99 64.728C1065.94 64.728 1069.22 63.5151 1072.02 61.0194L1070.69 59.5246C1068.32 61.6369 1065.55 62.728 1060.99 62.728V64.728ZM1072.04 61.0002C1074.69 58.5057 1076.25 55.2175 1076.25 50.912H1074.25C1074.25 54.6705 1072.92 57.4303 1070.67 59.5438L1072.04 61.0002ZM1076.25 50.912V13.616H1074.25V50.912H1076.25ZM1076.25 13.616C1076.25 9.32973 1074.71 5.87657 1072.02 3.50616L1070.7 5.00584C1072.91 6.95542 1074.25 9.83826 1074.25 13.616H1076.25ZM1072.02 3.50859C1069.22 1.01289 1065.94 -0.200001 1060.99 -0.200001V1.8C1065.55 1.8 1068.32 2.89109 1070.69 5.00341L1072.02 3.50859ZM1060.99 -0.200001H1048.18V1.8H1060.99V-0.200001ZM1066.9 49.76C1066.9 51.5207 1066.28 52.8737 1065.42 53.8535L1066.93 55.1705C1068.09 53.8463 1068.9 52.0313 1068.9 49.76H1066.9ZM1065.43 53.8476C1064.54 54.8448 1062.86 55.3921 1060.92 55.5305L1061.06 57.5255C1063.16 57.3759 1065.5 56.7712 1066.92 55.1764L1065.43 53.8476ZM1060.99 55.528H1055.38V57.528H1060.99V55.528ZM1056.38 56.528V6.848H1054.38V56.528H1056.38ZM1055.38 7.848H1060.99V5.848H1055.38V7.848ZM1060.92 7.84546C1062.86 7.98393 1064.54 8.53115 1065.43 9.52836L1066.92 8.19963C1065.5 6.60484 1063.16 6.00006 1061.06 5.85054L1060.92 7.84546ZM1065.42 9.5225C1066.28 10.5023 1066.9 11.8553 1066.9 13.616H1068.9C1068.9 11.3447 1068.09 9.52971 1066.93 8.20549L1065.42 9.5225ZM1066.9 13.616V49.76H1068.9V13.616H1066.9ZM1142.2 110.816C1142.2 113.144 1140.34 115 1138.02 115V117C1141.45 117 1144.2 114.248 1144.2 110.816H1142.2ZM1138.02 115C1135.69 115 1133.83 113.144 1133.83 110.816H1131.83C1131.83 114.248 1134.58 117 1138.02 117V115ZM1133.83 110.816C1133.83 108.488 1135.69 106.632 1138.02 106.632V104.632C1134.58 104.632 1131.83 107.384 1131.83 110.816H1133.83ZM1138.02 106.632C1140.34 106.632 1142.2 108.488 1142.2 110.816H1144.2C1144.2 107.384 1141.45 104.632 1138.02 104.632V106.632ZM1228.26 4.68799L1228.94 3.95979L1228.93 3.95004L1228.92 3.94058L1228.26 4.68799ZM1211.55 2.24L1211.26 1.28422L1211.25 1.28764L1211.24 1.29131L1211.55 2.24ZM1206.95 4.832L1207.6 5.5846L1207.61 5.57941L1206.95 4.832ZM1204.07 8.71999L1203.17 8.27278L1203.16 8.28933L1203.15 8.30619L1204.07 8.71999ZM1203.49 29.168L1202.5 29.296L1202.5 29.3002L1203.49 29.168ZM1205.94 41.408L1206.91 41.1746L1206.91 41.1613L1206.9 41.148L1205.94 41.408ZM1209.25 51.632L1210.17 51.2534L1209.25 51.632ZM1213.14 60.992L1212.21 61.3782L1212.22 61.3859L1213.14 60.992ZM1216.74 70.352L1217.68 70.0176L1217.67 70.0025L1217.67 69.9876L1216.74 70.352ZM1220.63 85.328L1219.64 85.5092L1219.64 85.5216L1219.65 85.534L1220.63 85.328ZM1220.63 109.376L1219.88 108.712L1219.86 108.736L1219.84 108.762L1220.63 109.376ZM1209.83 109.376L1209.04 109.99L1209.06 110.016L1209.08 110.04L1209.83 109.376ZM1208.24 81.584H1209.24V80.584H1208.24V81.584ZM1200.75 81.584V80.584H1199.75V81.584H1200.75ZM1204.64 113.984L1203.96 114.712L1203.97 114.722L1203.98 114.731L1204.64 113.984ZM1221.35 116.576L1221.64 117.532L1221.69 117.518L1221.73 117.499L1221.35 116.576ZM1225.95 113.984L1226.57 114.773L1226.62 114.735L1226.66 114.691L1225.95 113.984ZM1228.83 109.952L1227.92 109.538L1228.83 109.952ZM1229.41 89.648L1228.42 89.776L1228.42 89.7802L1229.41 89.648ZM1226.96 77.408L1225.99 77.6329L1225.99 77.6505L1226 77.668L1226.96 77.408ZM1223.65 67.04L1224.57 66.6614L1224.57 66.6537L1224.57 66.6461L1223.65 67.04ZM1221.35 60.992L1222.29 60.6758L1222.27 60.6155L1222.25 60.5582L1221.35 60.992ZM1212.27 33.344L1213.26 33.1628L1213.25 33.1504L1213.25 33.138L1212.27 33.344ZM1212.27 9.44L1212.98 10.1471L1213.02 10.1031L1213.06 10.0539L1212.27 9.44ZM1223.07 9.44L1223.83 8.78147L1223.82 8.77563L1223.07 9.44ZM1224.8 37.088H1223.8V38.088H1224.8V37.088ZM1232.15 37.088V38.088H1233.15V37.088H1232.15ZM1233.15 14.192C1233.15 9.89871 1231.6 6.46245 1228.94 3.95979L1227.57 5.41619C1229.81 7.52155 1231.15 10.4213 1231.15 14.192H1233.15ZM1228.92 3.94058C1226.11 1.44206 1222.69 0.231993 1217.89 0.231993V2.23199C1222.3 2.23199 1225.22 3.32593 1227.59 5.4354L1228.92 3.94058ZM1217.89 0.231993C1215.61 0.231993 1213.2 0.685539 1211.26 1.28422L1211.85 3.19578C1213.65 2.64245 1215.85 2.23199 1217.89 2.23199V0.231993ZM1211.24 1.29131C1209.4 1.90339 1207.69 2.82944 1206.28 4.08459L1207.61 5.57941C1208.79 4.53055 1210.25 3.72861 1211.87 3.18868L1211.24 1.29131ZM1206.29 4.07942C1205.01 5.19573 1203.93 6.75227 1203.17 8.27278L1204.96 9.16721C1205.64 7.80772 1206.58 6.48425 1207.6 5.58458L1206.29 4.07942ZM1203.15 8.30619C1202.36 10.0639 1202.06 12.0907 1202.06 14.192H1204.06C1204.06 12.2613 1204.33 10.5441 1204.98 9.13379L1203.15 8.30619ZM1202.06 14.192C1202.06 19.6146 1201.91 24.7491 1202.5 29.296L1204.48 29.04C1203.92 24.6589 1204.06 19.7134 1204.06 14.192H1202.06ZM1202.5 29.3002C1203.08 33.665 1203.95 37.8837 1204.97 41.668L1206.9 41.148C1205.91 37.4443 1205.05 33.311 1204.48 29.0358L1202.5 29.3002ZM1204.96 41.6414C1205.84 45.2953 1207.01 48.7999 1208.32 52.0106L1210.17 51.2534C1208.9 48.1281 1207.76 44.7206 1206.91 41.1746L1204.96 41.6414ZM1208.32 52.0106C1208.97 53.598 1209.95 55.9407 1210.76 57.8846C1211.16 58.857 1211.53 59.7303 1211.79 60.3605C1211.92 60.6757 1212.03 60.93 1212.1 61.1056C1212.14 61.1934 1212.17 61.2615 1212.19 61.3077C1212.19 61.3308 1212.2 61.3484 1212.21 61.3602C1212.21 61.3661 1212.21 61.3706 1212.21 61.3736C1212.21 61.3751 1212.21 61.3762 1212.21 61.377C1212.21 61.3774 1212.21 61.3777 1212.21 61.3778C1212.21 61.3779 1212.21 61.378 1212.21 61.3781C1212.21 61.3781 1212.21 61.3781 1213.14 60.992C1214.06 60.6059 1214.06 60.6058 1214.06 60.6058C1214.06 60.6057 1214.06 60.6057 1214.06 60.6056C1214.06 60.6054 1214.06 60.6051 1214.06 60.6047C1214.06 60.604 1214.06 60.6029 1214.06 60.6014C1214.06 60.5984 1214.05 60.594 1214.05 60.5881C1214.05 60.5763 1214.04 60.5587 1214.03 60.5357C1214.01 60.4896 1213.98 60.4216 1213.95 60.3339C1213.87 60.1585 1213.77 59.9043 1213.63 59.5894C1213.37 58.9597 1213.01 58.087 1212.6 57.1154C1211.79 55.1713 1210.82 52.834 1210.17 51.2534L1208.32 52.0106ZM1212.22 61.3859C1213.51 64.4012 1214.48 67.332 1215.81 70.7164L1217.67 69.9876C1216.4 66.748 1215.36 63.6308 1214.06 60.5981L1212.22 61.3859ZM1215.79 70.6864C1217.36 75.0907 1218.64 80.078 1219.64 85.5092L1221.61 85.1468C1220.59 79.634 1219.28 74.5413 1217.68 70.0176L1215.79 70.6864ZM1219.65 85.534C1220.78 90.9087 1221.21 97.3105 1221.21 104.624H1223.21C1223.21 97.2495 1222.78 90.6913 1221.6 85.122L1219.65 85.534ZM1221.21 104.624C1221.21 106.336 1220.82 107.653 1219.88 108.712L1221.37 110.04C1222.74 108.507 1223.21 106.656 1223.21 104.624H1221.21ZM1219.84 108.762C1219.5 109.198 1218.91 109.578 1218.08 109.848C1217.27 110.114 1216.3 110.248 1215.3 110.248V112.248C1216.46 112.248 1217.65 112.094 1218.7 111.748C1219.75 111.406 1220.75 110.85 1221.41 109.99L1219.84 108.762ZM1215.3 110.248C1213.24 110.248 1211.44 109.688 1210.57 108.712L1209.08 110.04C1210.51 111.656 1213.03 112.248 1215.3 112.248V110.248ZM1210.61 108.762C1209.74 107.644 1209.24 106.276 1209.24 104.624H1207.24C1207.24 106.716 1207.89 108.516 1209.04 109.99L1210.61 108.762ZM1209.24 104.624V81.584H1207.24V104.624H1209.24ZM1208.24 80.584H1200.75V82.584H1208.24V80.584ZM1199.75 81.584V104.624H1201.75V81.584H1199.75ZM1199.75 104.624C1199.75 108.929 1201.31 112.218 1203.96 114.712L1205.33 113.256C1203.08 111.142 1201.75 108.383 1201.75 104.624H1199.75ZM1203.98 114.731C1206.79 117.23 1210.21 118.44 1215.01 118.44V116.44C1210.59 116.44 1207.68 115.346 1205.31 113.237L1203.98 114.731ZM1215.01 118.44C1217.39 118.44 1219.65 118.143 1221.64 117.532L1221.05 115.62C1219.29 116.161 1217.23 116.44 1215.01 116.44V118.44ZM1221.73 117.499C1223.51 116.755 1225.18 115.85 1226.57 114.773L1225.34 113.195C1224.13 114.134 1222.63 114.957 1220.96 115.653L1221.73 117.499ZM1226.66 114.691C1227.87 113.479 1228.96 112.087 1229.74 110.366L1227.92 109.538C1227.27 110.985 1226.34 112.185 1225.25 113.277L1226.66 114.691ZM1229.74 110.366C1230.54 108.615 1230.84 106.736 1230.84 104.624H1228.84C1228.84 106.544 1228.57 108.121 1227.92 109.538L1229.74 110.366ZM1230.84 104.624C1230.84 99.0602 1230.99 93.9215 1230.4 89.5158L1228.42 89.7802C1228.98 94.0145 1228.84 98.9558 1228.84 104.624H1230.84ZM1230.4 89.52C1229.82 85.0049 1228.94 80.9285 1227.93 77.148L1226 77.668C1226.99 81.3755 1227.85 85.3631 1228.42 89.776L1230.4 89.52ZM1227.94 77.1831C1227.06 73.3806 1225.89 69.8731 1224.57 66.6614L1222.72 67.4186C1224 70.5429 1225.14 73.9474 1225.99 77.6329L1227.94 77.1831ZM1224.57 66.6461C1223.71 64.6538 1223 62.8077 1222.29 60.6758L1220.4 61.3082C1221.13 63.4963 1221.86 65.3942 1222.73 67.4339L1224.57 66.6461ZM1222.25 60.5582C1220.39 56.712 1218.68 52.4273 1217.1 47.9856L1215.22 48.6544C1216.81 53.1407 1218.55 57.496 1220.44 61.4258L1222.25 60.5582ZM1217.1 47.9856C1215.54 43.5812 1214.26 38.594 1213.26 33.1628L1211.29 33.5252C1212.31 39.038 1213.61 44.1307 1215.22 48.6544L1217.1 47.9856ZM1213.25 33.138C1212.12 27.7628 1211.69 21.3607 1211.69 14.192H1209.69C1209.69 21.4233 1210.12 27.9811 1211.29 33.55L1213.25 33.138ZM1211.69 14.192C1211.69 12.3067 1212.09 11.0341 1212.98 10.1471L1211.57 8.73289C1210.15 10.1499 1209.69 12.0453 1209.69 14.192H1211.69ZM1213.06 10.0539C1213.42 9.60057 1214.02 9.18658 1214.85 8.88527C1215.66 8.58735 1216.63 8.424 1217.6 8.424V6.424C1216.42 6.424 1215.22 6.62065 1214.16 7.00673C1213.11 7.38942 1212.14 7.98342 1211.48 8.82606L1213.06 10.0539ZM1217.6 8.424C1219.6 8.424 1221.43 9.09945 1222.33 10.1044L1223.82 8.77563C1222.41 7.18855 1219.92 6.424 1217.6 6.424V8.424ZM1222.32 10.0985C1223.18 11.0783 1223.8 12.4313 1223.8 14.192H1225.8C1225.8 11.9207 1224.98 10.1057 1223.83 8.78149L1222.32 10.0985ZM1223.8 14.192V37.088H1225.8V14.192H1223.8ZM1224.8 38.088H1232.15V36.088H1224.8V38.088ZM1233.15 37.088V14.192H1231.15V37.088H1233.15ZM1309.64 61.568V62.568H1310.64V61.568H1309.64ZM1296.97 61.568H1295.97V62.568H1296.97V61.568ZM1296.97 0.655991H1297.97V-0.344009H1296.97V0.655991ZM1289.77 0.655991V-0.344009H1288.77V0.655991H1289.77ZM1289.77 116H1288.77V117H1289.77V116ZM1296.97 116V117H1297.97V116H1296.97ZM1296.97 68.912V67.912H1295.97V68.912H1296.97ZM1309.64 68.912H1310.64V67.912H1309.64V68.912ZM1309.64 116H1308.64V117H1309.64V116ZM1316.84 116V117H1317.84V116H1316.84ZM1316.84 0.655991H1317.84V-0.344009H1316.84V0.655991ZM1309.64 0.655991V-0.344009H1308.64V0.655991H1309.64ZM1309.64 60.568H1296.97V62.568H1309.64V60.568ZM1297.97 61.568V0.655991H1295.97V61.568H1297.97ZM1296.97 -0.344009H1289.77V1.65599H1296.97V-0.344009ZM1288.77 0.655991V116H1290.77V0.655991H1288.77ZM1289.77 117H1296.97V115H1289.77V117ZM1297.97 116V68.912H1295.97V116H1297.97ZM1296.97 69.912H1309.64V67.912H1296.97V69.912ZM1308.64 68.912V116H1310.64V68.912H1308.64ZM1309.64 117H1316.84V115H1309.64V117ZM1317.84 116V0.655991H1315.84V116H1317.84ZM1316.84 -0.344009H1309.64V1.65599H1316.84V-0.344009ZM1308.64 0.655991V61.568H1310.64V0.655991H1308.64ZM1375 109.088L1375.93 108.717L1375.92 108.695L1375.91 108.674L1375 109.088ZM1377.59 112.976L1378.26 112.229L1377.59 112.976ZM1381.91 115.568L1381.6 116.517L1381.61 116.52L1381.62 116.524L1381.91 115.568ZM1397.32 112.976L1396.66 112.226L1396.66 112.229L1397.32 112.976ZM1397.32 3.68L1398.01 2.9518L1398 2.94204L1397.99 2.93259L1397.32 3.68ZM1381.91 1.23199L1382.23 2.18068L1382.25 2.17349L1382.27 2.16534L1381.91 1.23199ZM1377.59 3.68L1376.98 2.89064L1376.95 2.91079L1376.93 2.93259L1377.59 3.68ZM1375 7.71199L1375.9 8.15921L1375.92 8.10778L1375.94 8.05374L1375 7.71199ZM1392.57 108.368L1391.82 107.704V107.704L1392.57 108.368ZM1383.35 108.368L1384.14 107.754L1384.12 107.728L1384.1 107.704L1383.35 108.368ZM1383.35 8.432L1384.06 9.1391L1384.1 9.09508L1384.14 9.04594L1383.35 8.432ZM1392.57 8.432L1391.82 9.09636L1391.84 9.11832L1391.86 9.1391L1392.57 8.432ZM1373.43 103.76C1373.43 105.639 1373.26 107.666 1374.09 109.502L1375.91 108.674C1375.31 107.342 1375.43 105.913 1375.43 103.76H1373.43ZM1374.07 109.459C1374.68 110.983 1375.48 112.432 1376.93 113.723L1378.26 112.229C1377.12 111.216 1376.47 110.073 1375.93 108.717L1374.07 109.459ZM1376.93 113.723C1378.3 114.939 1379.71 115.887 1381.6 116.517L1382.23 114.619C1380.66 114.097 1379.48 113.317 1378.26 112.229L1376.93 113.723ZM1381.62 116.524C1383.59 117.131 1385.56 117.432 1387.96 117.432V115.432C1385.75 115.432 1383.98 115.157 1382.21 114.612L1381.62 116.524ZM1387.96 117.432C1390.35 117.432 1392.18 117.134 1393.77 116.496C1395.36 115.859 1396.65 114.911 1397.99 113.723L1396.66 112.229C1395.4 113.345 1394.31 114.125 1393.03 114.64C1391.74 115.154 1390.18 115.432 1387.96 115.432V117.432ZM1397.98 113.726C1400.62 111.401 1402.5 108.115 1402.5 103.76H1400.5C1400.5 107.469 1398.92 110.231 1396.66 112.226L1397.98 113.726ZM1402.5 103.76V13.04H1400.5V103.76H1402.5ZM1402.5 13.04C1402.5 8.68081 1400.61 5.40634 1398.01 2.9518L1396.64 4.4082C1398.92 6.56164 1400.5 9.33519 1400.5 13.04H1402.5ZM1397.99 2.93259C1396.65 1.74481 1395.36 0.796625 1393.77 0.159517C1392.18 -0.477688 1390.35 -0.776003 1387.96 -0.776003V1.224C1390.18 1.224 1391.74 1.50168 1393.03 2.01647C1394.31 2.53136 1395.4 3.31118 1396.66 4.4274L1397.99 2.93259ZM1387.96 -0.776003C1385.56 -0.776003 1383.57 -0.475224 1381.55 0.298647L1382.27 2.16534C1384 1.49921 1385.75 1.224 1387.96 1.224V-0.776003ZM1381.6 0.28331C1379.71 0.910742 1378.31 1.85161 1376.98 2.89064L1378.21 4.46935C1379.46 3.49237 1380.66 2.70525 1382.23 2.18068L1381.6 0.28331ZM1376.93 2.93259C1375.47 4.22873 1374.67 5.68649 1374.06 7.37025L1375.94 8.05374C1376.48 6.56951 1377.12 5.43526 1378.26 4.4274L1376.93 2.93259ZM1374.11 7.26478C1373.66 8.1596 1373.5 9.14268 1373.44 10.1001C1373.39 11.0395 1373.43 12.0849 1373.43 13.04H1375.43C1375.43 11.9791 1375.39 11.0805 1375.44 10.2199C1375.49 9.37731 1375.62 8.70439 1375.9 8.15921L1374.11 7.26478ZM1373.43 13.04V103.76H1375.43V13.04H1373.43ZM1393.15 103.616C1393.15 105.328 1392.76 106.645 1391.82 107.704L1393.32 109.032C1394.68 107.499 1395.15 105.648 1395.15 103.616H1393.15ZM1391.82 107.704C1390.9 108.739 1389.76 109.24 1387.82 109.24V111.24C1390.19 111.24 1391.93 110.589 1393.32 109.032L1391.82 107.704ZM1387.82 109.24C1386.82 109.24 1386.1 109.106 1385.54 108.87C1385 108.639 1384.56 108.286 1384.14 107.754L1382.56 108.982C1383.16 109.746 1383.87 110.329 1384.76 110.71C1385.64 111.086 1386.65 111.24 1387.82 111.24V109.24ZM1384.1 107.704C1383.19 106.681 1382.91 105.399 1382.91 103.616H1380.91C1380.91 105.577 1381.21 107.463 1382.61 109.032L1384.1 107.704ZM1382.91 103.616V13.04H1380.91V103.616H1382.91ZM1382.91 13.04C1382.91 11.2344 1383.2 9.99872 1384.06 9.1391L1382.65 7.72489C1381.2 9.16927 1380.91 11.1016 1380.91 13.04H1382.91ZM1384.14 9.04594C1384.57 8.49559 1385.03 8.10363 1385.58 7.84127C1386.14 7.57696 1386.85 7.41599 1387.82 7.41599V5.41599C1386.63 5.41599 1385.61 5.61503 1384.72 6.03472C1383.84 6.45636 1383.14 7.0724 1382.56 7.81805L1384.14 9.04594ZM1387.82 7.41599C1389.7 7.41599 1390.87 8.02037 1391.82 9.09636L1393.32 7.76763C1391.97 6.25162 1390.25 5.41599 1387.82 5.41599V7.41599ZM1391.86 9.1391C1392.75 10.0316 1393.15 11.3103 1393.15 13.04H1395.15C1395.15 11.0257 1394.69 9.13641 1393.28 7.72489L1391.86 9.1391ZM1393.15 13.04V103.616H1395.15V13.04H1393.15ZM1459.08 0.799999V-0.200001H1458.08V0.799999H1459.08ZM1459.08 116H1458.08V117H1459.08V116ZM1466.28 116V117H1467.28V116H1466.28ZM1466.28 63.728V62.728H1465.28V63.728H1466.28ZM1482.27 60.272L1482.93 61.0194L1482.94 61.0099L1482.95 61.0002L1482.27 60.272ZM1482.27 4.256L1481.6 5.00341L1481.6 5.00584L1482.27 4.256ZM1477.08 54.512L1477.83 55.1764L1477.83 55.1705L1477.08 54.512ZM1471.9 56.528V57.528H1471.93L1471.97 57.5255L1471.9 56.528ZM1466.28 56.528H1465.28V57.528H1466.28V56.528ZM1466.28 6.848V5.848H1465.28V6.848H1466.28ZM1471.9 6.848L1471.97 5.85054L1471.93 5.848H1471.9V6.848ZM1477.08 8.864L1477.83 8.20547L1477.83 8.19963L1477.08 8.864ZM1458.08 0.799999V116H1460.08V0.799999H1458.08ZM1459.08 117H1466.28V115H1459.08V117ZM1467.28 116V63.728H1465.28V116H1467.28ZM1466.28 64.728H1471.9V62.728H1466.28V64.728ZM1471.9 64.728C1476.85 64.728 1480.12 63.5151 1482.93 61.0194L1481.6 59.5246C1479.22 61.6369 1476.45 62.728 1471.9 62.728V64.728ZM1482.95 61.0002C1485.6 58.5057 1487.15 55.2175 1487.15 50.912H1485.15C1485.15 54.6705 1483.83 57.4303 1481.58 59.5438L1482.95 61.0002ZM1487.15 50.912V13.616H1485.15V50.912H1487.15ZM1487.15 13.616C1487.15 9.32973 1485.61 5.87657 1482.93 3.50616L1481.6 5.00584C1483.81 6.95542 1485.15 9.83826 1485.15 13.616H1487.15ZM1482.93 3.50859C1480.12 1.01289 1476.85 -0.200001 1471.9 -0.200001V1.8C1476.45 1.8 1479.22 2.89109 1481.6 5.00341L1482.93 3.50859ZM1471.9 -0.200001H1459.08V1.8H1471.9V-0.200001ZM1477.81 49.76C1477.81 51.5207 1477.19 52.8737 1476.33 53.8535L1477.83 55.1705C1478.99 53.8463 1479.81 52.0313 1479.81 49.76H1477.81ZM1476.33 53.8476C1475.45 54.8448 1473.76 55.3921 1471.83 55.5305L1471.97 57.5255C1474.06 57.3759 1476.41 56.7712 1477.83 55.1764L1476.33 53.8476ZM1471.9 55.528H1466.28V57.528H1471.9V55.528ZM1467.28 56.528V6.848H1465.28V56.528H1467.28ZM1466.28 7.848H1471.9V5.848H1466.28V7.848ZM1471.83 7.84546C1473.76 7.98393 1475.45 8.53115 1476.33 9.52836L1477.83 8.19963C1476.41 6.60484 1474.06 6.00006 1471.97 5.85054L1471.83 7.84546ZM1476.33 9.5225C1477.19 10.5023 1477.81 11.8553 1477.81 13.616H1479.81C1479.81 11.3447 1478.99 9.52971 1477.83 8.20549L1476.33 9.5225ZM1477.81 13.616V49.76H1479.81V13.616H1477.81ZM1553.11 110.816C1553.11 113.144 1551.25 115 1548.92 115V117C1552.35 117 1555.11 114.248 1555.11 110.816H1553.11ZM1548.92 115C1546.59 115 1544.74 113.144 1544.74 110.816H1542.74C1542.74 114.248 1545.49 117 1548.92 117V115ZM1544.74 110.816C1544.74 108.488 1546.59 106.632 1548.92 106.632V104.632C1545.49 104.632 1542.74 107.384 1542.74 110.816H1544.74ZM1548.92 106.632C1551.25 106.632 1553.11 108.488 1553.11 110.816H1555.11C1555.11 107.384 1552.35 104.632 1548.92 104.632V106.632ZM1639.16 4.68799L1639.85 3.95979L1639.84 3.95004L1639.83 3.94058L1639.16 4.68799ZM1622.46 2.24L1622.17 1.28422L1622.15 1.28764L1622.14 1.29131L1622.46 2.24ZM1617.85 4.832L1618.51 5.5846L1618.52 5.57941L1617.85 4.832ZM1614.97 8.71999L1614.08 8.27278L1614.07 8.28933L1614.06 8.30619L1614.97 8.71999ZM1614.4 29.168L1613.4 29.296L1613.4 29.3002L1614.4 29.168ZM1616.84 41.408L1617.82 41.1746L1617.81 41.1613L1617.81 41.148L1616.84 41.408ZM1620.16 51.632L1621.08 51.2534L1620.16 51.632ZM1624.04 60.992L1623.12 61.3782L1623.12 61.3859L1624.04 60.992ZM1627.64 70.352L1628.59 70.0176L1628.58 70.0025L1628.57 69.9876L1627.64 70.352ZM1631.53 85.328L1630.55 85.5092L1630.55 85.5216L1630.55 85.534L1631.53 85.328ZM1631.53 109.376L1630.78 108.712L1630.76 108.736L1630.74 108.762L1631.53 109.376ZM1620.73 109.376L1619.94 109.99L1619.96 110.016L1619.98 110.04L1620.73 109.376ZM1619.15 81.584H1620.15V80.584H1619.15V81.584ZM1611.66 81.584V80.584H1610.66V81.584H1611.66ZM1615.55 113.984L1614.86 114.712L1614.87 114.722L1614.88 114.731L1615.55 113.984ZM1632.25 116.576L1632.55 117.532L1632.59 117.518L1632.64 117.499L1632.25 116.576ZM1636.86 113.984L1637.47 114.773L1637.52 114.735L1637.57 114.691L1636.86 113.984ZM1639.74 109.952L1638.83 109.538L1639.74 109.952ZM1640.32 89.648L1639.32 89.776L1639.32 89.7802L1640.32 89.648ZM1637.87 77.408L1636.89 77.6329L1636.9 77.6505L1636.9 77.668L1637.87 77.408ZM1634.56 67.04L1635.48 66.6614L1635.48 66.6537L1635.47 66.6461L1634.56 67.04ZM1632.25 60.992L1633.2 60.6758L1633.18 60.6155L1633.15 60.5582L1632.25 60.992ZM1623.18 33.344L1624.16 33.1628L1624.16 33.1504L1624.16 33.138L1623.18 33.344ZM1623.18 9.44L1623.89 10.1471L1623.93 10.1031L1623.97 10.0539L1623.18 9.44ZM1633.98 9.44L1634.73 8.78147L1634.73 8.77563L1633.98 9.44ZM1635.71 37.088H1634.71V38.088H1635.71V37.088ZM1643.05 37.088V38.088H1644.05V37.088H1643.05ZM1644.05 14.192C1644.05 9.89871 1642.51 6.46245 1639.85 3.95979L1638.48 5.41619C1640.71 7.52155 1642.05 10.4213 1642.05 14.192H1644.05ZM1639.83 3.94058C1637.02 1.44206 1633.6 0.231993 1628.8 0.231993V2.23199C1633.21 2.23199 1636.13 3.32593 1638.5 5.4354L1639.83 3.94058ZM1628.8 0.231993C1626.52 0.231993 1624.11 0.685539 1622.17 1.28422L1622.75 3.19578C1624.55 2.64245 1626.76 2.23199 1628.8 2.23199V0.231993ZM1622.14 1.29131C1620.31 1.90339 1618.6 2.82944 1617.19 4.08459L1618.52 5.57941C1619.7 4.53055 1621.16 3.72861 1622.78 3.18868L1622.14 1.29131ZM1617.19 4.07942C1615.92 5.19573 1614.84 6.75227 1614.08 8.27278L1615.87 9.16721C1616.55 7.80772 1617.48 6.48425 1618.51 5.58458L1617.19 4.07942ZM1614.06 8.30619C1613.26 10.0639 1612.96 12.0907 1612.96 14.192H1614.96C1614.96 12.2613 1615.24 10.5441 1615.88 9.13379L1614.06 8.30619ZM1612.96 14.192C1612.96 19.6146 1612.82 24.7491 1613.4 29.296L1615.39 29.04C1614.82 24.6589 1614.96 19.7134 1614.96 14.192H1612.96ZM1613.4 29.3002C1613.99 33.665 1614.86 37.8837 1615.88 41.668L1617.81 41.148C1616.81 37.4443 1615.96 33.311 1615.39 29.0358L1613.4 29.3002ZM1615.87 41.6414C1616.75 45.2953 1617.92 48.7999 1619.23 52.0106L1621.08 51.2534C1619.8 48.1281 1618.67 44.7206 1617.82 41.1746L1615.87 41.6414ZM1619.23 52.0106C1619.88 53.598 1620.85 55.9407 1621.66 57.8846C1622.07 58.857 1622.43 59.7303 1622.7 60.3605C1622.83 60.6757 1622.93 60.93 1623.01 61.1056C1623.04 61.1934 1623.07 61.2615 1623.09 61.3077C1623.1 61.3308 1623.11 61.3484 1623.11 61.3602C1623.12 61.3661 1623.12 61.3706 1623.12 61.3736C1623.12 61.3751 1623.12 61.3762 1623.12 61.377C1623.12 61.3774 1623.12 61.3777 1623.12 61.3778C1623.12 61.3779 1623.12 61.378 1623.12 61.3781C1623.12 61.3781 1623.12 61.3781 1624.04 60.992C1624.97 60.6059 1624.97 60.6058 1624.97 60.6058C1624.97 60.6057 1624.97 60.6057 1624.97 60.6056C1624.97 60.6054 1624.97 60.6051 1624.97 60.6047C1624.97 60.604 1624.96 60.6029 1624.96 60.6014C1624.96 60.5984 1624.96 60.594 1624.96 60.5881C1624.95 60.5763 1624.95 60.5587 1624.94 60.5357C1624.92 60.4896 1624.89 60.4216 1624.85 60.3339C1624.78 60.1585 1624.67 59.9043 1624.54 59.5894C1624.28 58.9597 1623.91 58.087 1623.51 57.1154C1622.7 55.1713 1621.73 52.834 1621.08 51.2534L1619.23 52.0106ZM1623.12 61.3859C1624.42 64.4012 1625.39 67.332 1626.71 70.7164L1628.57 69.9876C1627.31 66.748 1626.26 63.6308 1624.96 60.5981L1623.12 61.3859ZM1626.7 70.6864C1628.26 75.0907 1629.55 80.078 1630.55 85.5092L1632.51 85.1468C1631.5 79.634 1630.19 74.5413 1628.59 70.0176L1626.7 70.6864ZM1630.55 85.534C1631.68 90.9087 1632.12 97.3105 1632.12 104.624H1634.12C1634.12 97.2495 1633.68 90.6913 1632.51 85.122L1630.55 85.534ZM1632.12 104.624C1632.12 106.336 1631.72 107.653 1630.78 108.712L1632.28 110.04C1633.64 108.507 1634.12 106.656 1634.12 104.624H1632.12ZM1630.74 108.762C1630.4 109.198 1629.81 109.578 1628.99 109.848C1628.17 110.114 1627.2 110.248 1626.2 110.248V112.248C1627.37 112.248 1628.55 112.094 1629.61 111.748C1630.66 111.406 1631.65 110.85 1632.32 109.99L1630.74 108.762ZM1626.2 110.248C1624.15 110.248 1622.35 109.688 1621.48 108.712L1619.98 110.04C1621.42 111.656 1623.94 112.248 1626.2 112.248V110.248ZM1621.52 108.762C1620.65 107.644 1620.15 106.276 1620.15 104.624H1618.15C1618.15 106.716 1618.8 108.516 1619.94 109.99L1621.52 108.762ZM1620.15 104.624V81.584H1618.15V104.624H1620.15ZM1619.15 80.584H1611.66V82.584H1619.15V80.584ZM1610.66 81.584V104.624H1612.66V81.584H1610.66ZM1610.66 104.624C1610.66 108.929 1612.21 112.218 1614.86 114.712L1616.23 113.256C1613.99 111.142 1612.66 108.383 1612.66 104.624H1610.66ZM1614.88 114.731C1617.69 117.23 1621.11 118.44 1625.92 118.44V116.44C1621.5 116.44 1618.58 115.346 1616.21 113.237L1614.88 114.731ZM1625.92 118.44C1628.3 118.44 1630.56 118.143 1632.55 117.532L1631.96 115.62C1630.2 116.161 1628.14 116.44 1625.92 116.44V118.44ZM1632.64 117.499C1634.42 116.755 1636.09 115.85 1637.47 114.773L1636.25 113.195C1635.04 114.134 1633.54 114.957 1631.87 115.653L1632.64 117.499ZM1637.57 114.691C1638.78 113.479 1639.87 112.087 1640.65 110.366L1638.83 109.538C1638.17 110.985 1637.24 112.185 1636.15 113.277L1637.57 114.691ZM1640.65 110.366C1641.45 108.615 1641.75 106.736 1641.75 104.624H1639.75C1639.75 106.544 1639.47 108.121 1638.83 109.538L1640.65 110.366ZM1641.75 104.624C1641.75 99.0602 1641.89 93.9215 1641.31 89.5158L1639.32 89.7802C1639.89 94.0145 1639.75 98.9558 1639.75 104.624H1641.75ZM1641.31 89.52C1640.72 85.0049 1639.85 80.9285 1638.83 77.148L1636.9 77.668C1637.9 81.3755 1638.75 85.3631 1639.32 89.776L1641.31 89.52ZM1638.84 77.1831C1637.96 73.3806 1636.79 69.8731 1635.48 66.6614L1633.63 67.4186C1634.91 70.5429 1636.04 73.9474 1636.89 77.6329L1638.84 77.1831ZM1635.47 66.6461C1634.62 64.6538 1633.91 62.8077 1633.2 60.6758L1631.3 61.3082C1632.03 63.4963 1632.76 65.3942 1633.64 67.4339L1635.47 66.6461ZM1633.15 60.5582C1631.3 56.712 1629.59 52.4273 1628.01 47.9856L1626.12 48.6544C1627.72 53.1407 1629.46 57.496 1631.35 61.4258L1633.15 60.5582ZM1628.01 47.9856C1626.45 43.5812 1625.16 38.594 1624.16 33.1628L1622.2 33.5252C1623.21 39.038 1624.52 44.1307 1626.12 48.6544L1628.01 47.9856ZM1624.16 33.138C1623.03 27.7628 1622.6 21.3607 1622.6 14.192H1620.6C1620.6 21.4233 1621.03 27.9811 1622.2 33.55L1624.16 33.138ZM1622.6 14.192C1622.6 12.3067 1623 11.0341 1623.89 10.1471L1622.47 8.73289C1621.06 10.1499 1620.6 12.0453 1620.6 14.192H1622.6ZM1623.97 10.0539C1624.32 9.60057 1624.93 9.18658 1625.75 8.88527C1626.57 8.58735 1627.53 8.424 1628.51 8.424V6.424C1627.32 6.424 1626.12 6.62065 1625.07 7.00673C1624.02 7.38942 1623.05 7.98342 1622.39 8.82606L1623.97 10.0539ZM1628.51 8.424C1630.51 8.424 1632.34 9.09945 1633.23 10.1044L1634.73 8.77563C1633.32 7.18855 1630.83 6.424 1628.51 6.424V8.424ZM1633.23 10.0985C1634.08 11.0783 1634.71 12.4313 1634.71 14.192H1636.71C1636.71 11.9207 1635.89 10.1057 1634.73 8.78149L1633.23 10.0985ZM1634.71 14.192V37.088H1636.71V14.192H1634.71ZM1635.71 38.088H1643.05V36.088H1635.71V38.088ZM1644.05 37.088V14.192H1642.05V37.088H1644.05ZM1720.55 61.568V62.568H1721.55V61.568H1720.55ZM1707.88 61.568H1706.88V62.568H1707.88V61.568ZM1707.88 0.655991H1708.88V-0.344009H1707.88V0.655991ZM1700.68 0.655991V-0.344009H1699.68V0.655991H1700.68ZM1700.68 116H1699.68V117H1700.68V116ZM1707.88 116V117H1708.88V116H1707.88ZM1707.88 68.912V67.912H1706.88V68.912H1707.88ZM1720.55 68.912H1721.55V67.912H1720.55V68.912ZM1720.55 116H1719.55V117H1720.55V116ZM1727.75 116V117H1728.75V116H1727.75ZM1727.75 0.655991H1728.75V-0.344009H1727.75V0.655991ZM1720.55 0.655991V-0.344009H1719.55V0.655991H1720.55ZM1720.55 60.568H1707.88V62.568H1720.55V60.568ZM1708.88 61.568V0.655991H1706.88V61.568H1708.88ZM1707.88 -0.344009H1700.68V1.65599H1707.88V-0.344009ZM1699.68 0.655991V116H1701.68V0.655991H1699.68ZM1700.68 117H1707.88V115H1700.68V117ZM1708.88 116V68.912H1706.88V116H1708.88ZM1707.88 69.912H1720.55V67.912H1707.88V69.912ZM1719.55 68.912V116H1721.55V68.912H1719.55ZM1720.55 117H1727.75V115H1720.55V117ZM1728.75 116V0.655991H1726.75V116H1728.75ZM1727.75 -0.344009H1720.55V1.65599H1727.75V-0.344009ZM1719.55 0.655991V61.568H1721.55V0.655991H1719.55ZM1785.91 109.088L1786.84 108.717L1786.83 108.695L1786.82 108.674L1785.91 109.088ZM1788.5 112.976L1789.16 112.229L1788.5 112.976ZM1792.82 115.568L1792.5 116.517L1792.51 116.52L1792.53 116.524L1792.82 115.568ZM1808.23 112.976L1807.57 112.226L1807.56 112.229L1808.23 112.976ZM1808.23 3.68L1808.91 2.9518L1808.9 2.94204L1808.89 2.93259L1808.23 3.68ZM1792.82 1.23199L1793.14 2.18068L1793.16 2.17349L1793.18 2.16534L1792.82 1.23199ZM1788.5 3.68L1787.89 2.89064L1787.86 2.91079L1787.83 2.93259L1788.5 3.68ZM1785.91 7.71199L1786.8 8.15921L1786.83 8.10778L1786.85 8.05374L1785.91 7.71199ZM1803.48 108.368L1802.73 107.704V107.704L1803.48 108.368ZM1794.26 108.368L1795.05 107.754L1795.03 107.728L1795.01 107.704L1794.26 108.368ZM1794.26 8.432L1794.97 9.1391L1795.01 9.09508L1795.05 9.04594L1794.26 8.432ZM1803.48 8.432L1802.73 9.09636L1802.75 9.11832L1802.77 9.1391L1803.48 8.432ZM1784.33 103.76C1784.33 105.639 1784.16 107.666 1785 109.502L1786.82 108.674C1786.21 107.342 1786.33 105.913 1786.33 103.76H1784.33ZM1784.98 109.459C1785.59 110.983 1786.38 112.432 1787.83 113.723L1789.16 112.229C1788.02 111.216 1787.38 110.073 1786.84 108.717L1784.98 109.459ZM1787.83 113.723C1789.2 114.939 1790.61 115.887 1792.5 116.517L1793.14 114.619C1791.57 114.097 1790.39 113.317 1789.16 112.229L1787.83 113.723ZM1792.53 116.524C1794.5 117.131 1796.47 117.432 1798.87 117.432V115.432C1796.66 115.432 1794.88 115.157 1793.11 114.612L1792.53 116.524ZM1798.87 117.432C1801.25 117.432 1803.08 117.134 1804.67 116.496C1806.27 115.859 1807.56 114.911 1808.89 113.723L1807.56 112.229C1806.31 113.345 1805.22 114.125 1803.93 114.64C1802.64 115.154 1801.09 115.432 1798.87 115.432V117.432ZM1808.89 113.726C1811.52 111.401 1813.4 108.115 1813.4 103.76H1811.4C1811.4 107.469 1809.83 110.231 1807.57 112.226L1808.89 113.726ZM1813.4 103.76V13.04H1811.4V103.76H1813.4ZM1813.4 13.04C1813.4 8.68081 1811.52 5.40634 1808.91 2.9518L1807.54 4.4082C1809.83 6.56164 1811.4 9.33519 1811.4 13.04H1813.4ZM1808.89 2.93259C1807.56 1.74481 1806.27 0.796625 1804.67 0.159517C1803.08 -0.477688 1801.25 -0.776003 1798.87 -0.776003V1.224C1801.09 1.224 1802.64 1.50168 1803.93 2.01647C1805.22 2.53136 1806.31 3.31118 1807.56 4.4274L1808.89 2.93259ZM1798.87 -0.776003C1796.47 -0.776003 1794.47 -0.475224 1792.46 0.298647L1793.18 2.16534C1794.91 1.49921 1796.66 1.224 1798.87 1.224V-0.776003ZM1792.5 0.28331C1790.62 0.910742 1789.22 1.85161 1787.89 2.89064L1789.11 4.46935C1790.37 3.49237 1791.56 2.70525 1793.14 2.18068L1792.5 0.28331ZM1787.83 2.93259C1786.38 4.22873 1785.58 5.68649 1784.97 7.37025L1786.85 8.05374C1787.39 6.56951 1788.03 5.43526 1789.16 4.4274L1787.83 2.93259ZM1785.01 7.26478C1784.57 8.1596 1784.41 9.14268 1784.35 10.1001C1784.29 11.0395 1784.33 12.0849 1784.33 13.04H1786.33C1786.33 11.9791 1786.3 11.0805 1786.35 10.2199C1786.4 9.37731 1786.53 8.70439 1786.8 8.15921L1785.01 7.26478ZM1784.33 13.04V103.76H1786.33V13.04H1784.33ZM1804.06 103.616C1804.06 105.328 1803.67 106.645 1802.73 107.704L1804.22 109.032C1805.59 107.499 1806.06 105.648 1806.06 103.616H1804.06ZM1802.73 107.704C1801.81 108.739 1800.67 109.24 1798.72 109.24V111.24C1801.1 111.24 1802.84 110.589 1804.22 109.032L1802.73 107.704ZM1798.72 109.24C1797.73 109.24 1797.01 109.106 1796.45 108.87C1795.91 108.639 1795.46 108.286 1795.05 107.754L1793.47 108.982C1794.06 109.746 1794.77 110.329 1795.67 110.71C1796.55 111.086 1797.56 111.24 1798.72 111.24V109.24ZM1795.01 107.704C1794.1 106.681 1793.82 105.399 1793.82 103.616H1791.82C1791.82 105.577 1792.12 107.463 1793.51 109.032L1795.01 107.704ZM1793.82 103.616V13.04H1791.82V103.616H1793.82ZM1793.82 13.04C1793.82 11.2344 1794.11 9.99872 1794.97 9.1391L1793.55 7.72489C1792.11 9.16927 1791.82 11.1016 1791.82 13.04H1793.82ZM1795.05 9.04594C1795.48 8.49559 1795.94 8.10363 1796.49 7.84127C1797.04 7.57696 1797.76 7.41599 1798.72 7.41599V5.41599C1797.53 5.41599 1796.51 5.61503 1795.63 6.03472C1794.74 6.45636 1794.05 7.0724 1793.47 7.81805L1795.05 9.04594ZM1798.72 7.41599C1800.61 7.41599 1801.77 8.02037 1802.73 9.09636L1804.22 7.76763C1802.88 6.25162 1801.16 5.41599 1798.72 5.41599V7.41599ZM1802.77 9.1391C1803.66 10.0316 1804.06 11.3103 1804.06 13.04H1806.06C1806.06 11.0257 1805.59 9.13641 1804.18 7.72489L1802.77 9.1391ZM1804.06 13.04V103.616H1806.06V13.04H1804.06ZM1869.99 0.799999V-0.200001H1868.99V0.799999H1869.99ZM1869.99 116H1868.99V117H1869.99V116ZM1877.19 116V117H1878.19V116H1877.19ZM1877.19 63.728V62.728H1876.19V63.728H1877.19ZM1893.17 60.272L1893.84 61.0194L1893.85 61.0099L1893.86 61.0002L1893.17 60.272ZM1893.17 4.256L1892.51 5.00341L1892.51 5.00584L1893.17 4.256ZM1887.99 54.512L1888.73 55.1764L1888.74 55.1705L1887.99 54.512ZM1882.8 56.528V57.528H1882.84L1882.87 57.5255L1882.8 56.528ZM1877.19 56.528H1876.19V57.528H1877.19V56.528ZM1877.19 6.848V5.848H1876.19V6.848H1877.19ZM1882.8 6.848L1882.87 5.85054L1882.84 5.848H1882.8V6.848ZM1887.99 8.864L1888.74 8.20547L1888.73 8.19963L1887.99 8.864ZM1868.99 0.799999V116H1870.99V0.799999H1868.99ZM1869.99 117H1877.19V115H1869.99V117ZM1878.19 116V63.728H1876.19V116H1878.19ZM1877.19 64.728H1882.8V62.728H1877.19V64.728ZM1882.8 64.728C1887.75 64.728 1891.03 63.5151 1893.84 61.0194L1892.51 59.5246C1890.13 61.6369 1887.36 62.728 1882.8 62.728V64.728ZM1893.86 61.0002C1896.51 58.5057 1898.06 55.2175 1898.06 50.912H1896.06C1896.06 54.6705 1894.73 57.4303 1892.49 59.5438L1893.86 61.0002ZM1898.06 50.912V13.616H1896.06V50.912H1898.06ZM1898.06 13.616C1898.06 9.32973 1896.52 5.87657 1893.83 3.50616L1892.51 5.00584C1894.72 6.95542 1896.06 9.83826 1896.06 13.616H1898.06ZM1893.84 3.50859C1891.03 1.01289 1887.75 -0.200001 1882.8 -0.200001V1.8C1887.36 1.8 1890.13 2.89109 1892.51 5.00341L1893.84 3.50859ZM1882.8 -0.200001H1869.99V1.8H1882.8V-0.200001ZM1888.72 49.76C1888.72 51.5207 1888.09 52.8737 1887.23 53.8535L1888.74 55.1705C1889.9 53.8463 1890.72 52.0313 1890.72 49.76H1888.72ZM1887.24 53.8476C1886.35 54.8448 1884.67 55.3921 1882.73 55.5305L1882.87 57.5255C1884.97 57.3759 1887.32 56.7712 1888.73 55.1764L1887.24 53.8476ZM1882.8 55.528H1877.19V57.528H1882.8V55.528ZM1878.19 56.528V6.848H1876.19V56.528H1878.19ZM1877.19 7.848H1882.8V5.848H1877.19V7.848ZM1882.73 7.84546C1884.67 7.98393 1886.35 8.53115 1887.24 9.52836L1888.73 8.19963C1887.32 6.60484 1884.97 6.00006 1882.87 5.85054L1882.73 7.84546ZM1887.23 9.5225C1888.09 10.5023 1888.72 11.8553 1888.72 13.616H1890.72C1890.72 11.3447 1889.9 9.52971 1888.74 8.20549L1887.23 9.5225ZM1888.72 13.616V49.76H1890.72V13.616H1888.72ZM1964.01 110.816C1964.01 113.144 1962.16 115 1959.83 115V117C1963.26 117 1966.01 114.248 1966.01 110.816H1964.01ZM1959.83 115C1957.5 115 1955.64 113.144 1955.64 110.816H1953.64C1953.64 114.248 1956.4 117 1959.83 117V115ZM1955.64 110.816C1955.64 108.488 1957.5 106.632 1959.83 106.632V104.632C1956.4 104.632 1953.64 107.384 1953.64 110.816H1955.64ZM1959.83 106.632C1962.16 106.632 1964.01 108.488 1964.01 110.816H1966.01C1966.01 107.384 1963.26 104.632 1959.83 104.632V106.632Z" fill="#EA4C89"/>
</svg>
